<svg xmlns="http://www.w3.org/2000/svg" viewBox="0 0 28 28" width="28" height="28">
	<style>
		tspan { white-space:pre }
		.shp0 { fill: #a266d1 } 
		.shp1 { fill: #ffffff } 
	</style>
	<g id="Layer">
		<path id="Layer" class="shp0" d="M14 28C6.26 28 0 21.74 0 14C0 6.26 6.26 0 14 0C21.74 0 28 6.26 28 14C28 21.74 21.74 28 14 28Z" />
	</g>
	<path id="Layer" class="shp1" d="M6.12 17.01C6.26 17.01 6.39 17.01 6.53 17.01C6.9 17.01 7.26 17.01 7.63 17.01C8.17 17.01 8.71 17.01 9.25 17.01C9.91 17.01 10.58 17.01 11.24 17.01C11.97 17.01 12.69 17.01 13.41 17.01C14.14 17.01 14.88 17.01 15.61 17.01C16.29 17.01 16.97 17.01 17.66 17.01C18.23 17.01 18.81 17.01 19.38 17.01C19.79 17.01 20.21 17.01 20.63 17.01C20.82 17.01 21.02 17.01 21.22 17.01C21.22 17.01 21.23 17.01 21.24 17.01C21.43 17.01 21.64 16.92 21.78 16.79C21.91 16.65 22.01 16.44 22 16.25C21.99 16.05 21.93 15.85 21.78 15.71C21.63 15.58 21.45 15.49 21.24 15.49C21.11 15.49 20.97 15.49 20.84 15.49C20.47 15.49 20.1 15.49 19.74 15.49C19.19 15.49 18.66 15.49 18.11 15.49C17.45 15.49 16.78 15.49 16.12 15.49C15.4 15.49 14.68 15.49 13.95 15.49C13.22 15.49 12.49 15.49 11.76 15.49C11.07 15.49 10.39 15.49 9.71 15.49C9.13 15.49 8.56 15.49 7.98 15.49C7.57 15.49 7.15 15.49 6.74 15.49C6.54 15.49 6.35 15.49 6.15 15.49C6.14 15.49 6.13 15.49 6.12 15.49C5.93 15.49 5.72 15.58 5.59 15.71C5.46 15.85 5.36 16.06 5.36 16.25C5.37 16.45 5.44 16.65 5.59 16.79C5.74 16.92 5.92 17.01 6.12 17.01Z" />
	<path id="Layer" class="shp1" d="M6.88 19.01C6.88 18.66 6.88 18.31 6.88 17.96C6.88 17.12 6.88 16.28 6.88 15.44C6.88 14.43 6.88 13.41 6.88 12.4C6.88 11.52 6.88 10.65 6.88 9.77C6.88 9.34 6.89 8.92 6.88 8.49C6.88 8.48 6.88 8.48 6.88 8.47C6.88 8.28 6.8 8.07 6.66 7.94C6.53 7.8 6.31 7.7 6.12 7.71C5.93 7.72 5.72 7.79 5.59 7.94C5.45 8.08 5.36 8.27 5.36 8.47C5.36 8.82 5.36 9.18 5.36 9.53C5.36 10.37 5.36 11.2 5.36 12.04C5.36 13.06 5.36 14.07 5.36 15.08C5.36 15.96 5.36 16.84 5.36 17.71C5.36 18.14 5.36 18.57 5.36 18.99C5.36 19 5.36 19.01 5.36 19.01C5.36 19.21 5.45 19.41 5.59 19.55C5.72 19.68 5.93 19.78 6.12 19.77C6.32 19.76 6.52 19.7 6.66 19.55C6.8 19.4 6.88 19.22 6.88 19.01Z" />
	<path id="Layer" class="shp1" d="M20.48 16.25C20.48 17.06 20.48 17.86 20.48 18.67C20.48 18.79 20.48 18.9 20.48 19.01C20.48 19.21 20.56 19.41 20.7 19.55C20.83 19.68 21.05 19.78 21.24 19.77C21.43 19.76 21.64 19.7 21.77 19.55C21.91 19.4 22 19.22 22 19.01C22 18.21 22 17.4 22 16.59C22 16.48 22 16.36 22 16.25C22 16.06 21.91 15.85 21.77 15.71C21.64 15.58 21.43 15.48 21.24 15.49C21.04 15.5 20.84 15.56 20.7 15.71C20.57 15.86 20.48 16.04 20.48 16.25Z" />
	<path id="Layer" class="shp1" d="M5.36 13.44C5.36 14.26 5.36 15.08 5.36 15.9C5.36 16.02 5.36 16.14 5.36 16.25C5.36 16.66 5.71 17.01 6.12 17.01C6.26 17.01 6.39 17.01 6.53 17.01C6.9 17.01 7.26 17.01 7.63 17.01C8.17 17.01 8.71 17.01 9.25 17.01C9.91 17.01 10.58 17.01 11.24 17.01C11.97 17.01 12.69 17.01 13.41 17.01C14.14 17.01 14.88 17.01 15.61 17.01C16.29 17.01 16.97 17.01 17.66 17.01C18.23 17.01 18.81 17.01 19.38 17.01C19.79 17.01 20.21 17.01 20.63 17.01C20.82 17.01 21.02 17.01 21.22 17.01C21.22 17.01 21.23 17.01 21.24 17.01C21.65 17.01 22 16.66 22 16.25C22 15.97 22 15.68 22 15.4C22 15 22.02 14.59 21.87 14.21C21.74 13.86 21.55 13.54 21.27 13.29C20.99 13.04 20.66 12.84 20.29 12.75C20.08 12.7 19.87 12.68 19.65 12.68C19.36 12.68 19.08 12.68 18.8 12.68C18.26 12.68 17.73 12.68 17.19 12.68C16.5 12.68 15.8 12.68 15.1 12.68C14.32 12.68 13.54 12.68 12.77 12.68C11.99 12.68 11.22 12.68 10.45 12.68C9.77 12.68 9.09 12.68 8.41 12.68C7.9 12.68 7.4 12.68 6.9 12.68C6.65 12.68 6.4 12.68 6.16 12.68C6.15 12.68 6.14 12.68 6.13 12.68C5.93 12.68 5.73 12.76 5.59 12.9C5.46 13.03 5.36 13.25 5.36 13.44C5.37 13.63 5.44 13.84 5.59 13.97C5.74 14.11 5.92 14.2 6.12 14.2C6.25 14.2 6.37 14.2 6.49 14.2C6.82 14.2 7.16 14.2 7.49 14.2C7.99 14.2 8.48 14.2 8.98 14.2C9.58 14.2 10.18 14.2 10.78 14.2C11.44 14.2 12.1 14.2 12.75 14.2C13.41 14.2 14.08 14.2 14.74 14.2C15.35 14.2 15.97 14.2 16.58 14.2C17.1 14.2 17.62 14.2 18.13 14.2C18.5 14.2 18.86 14.2 19.23 14.2C19.39 14.2 19.55 14.2 19.71 14.2C19.78 14.2 19.86 14.2 19.93 14.21C19.86 14.2 19.8 14.19 19.73 14.19C19.86 14.2 19.98 14.24 20.1 14.29C20.04 14.26 19.98 14.24 19.92 14.21C20.04 14.26 20.16 14.33 20.26 14.41C20.21 14.37 20.16 14.33 20.11 14.29C20.21 14.37 20.31 14.47 20.39 14.57C20.35 14.52 20.31 14.47 20.27 14.42C20.35 14.52 20.42 14.64 20.47 14.76C20.44 14.7 20.42 14.64 20.39 14.58C20.44 14.7 20.48 14.82 20.49 14.95C20.49 14.88 20.48 14.82 20.47 14.75C20.5 15 20.48 15.27 20.48 15.53C20.48 15.77 20.48 16.01 20.48 16.25C20.74 16 20.99 15.75 21.24 15.49C21.11 15.49 20.97 15.49 20.84 15.49C20.47 15.49 20.1 15.49 19.74 15.49C19.19 15.49 18.66 15.49 18.11 15.49C17.45 15.49 16.78 15.49 16.12 15.49C15.4 15.49 14.68 15.49 13.95 15.49C13.22 15.49 12.49 15.49 11.76 15.49C11.07 15.49 10.39 15.49 9.71 15.49C9.13 15.49 8.56 15.49 7.98 15.49C7.57 15.49 7.15 15.49 6.74 15.49C6.54 15.49 6.35 15.49 6.15 15.49C6.14 15.49 6.13 15.49 6.12 15.49C6.38 15.75 6.63 16 6.88 16.25C6.88 15.43 6.88 14.61 6.88 13.79C6.88 13.67 6.88 13.56 6.88 13.44C6.88 13.25 6.8 13.04 6.66 12.91C6.53 12.77 6.31 12.67 6.12 12.68C5.93 12.69 5.72 12.76 5.59 12.91C5.45 13.05 5.36 13.23 5.36 13.44Z" />
</svg>