<svg xmlns="http://www.w3.org/2000/svg" viewBox="0 0 69 101" width="69" height="101">
	<defs>
		<linearGradient id="grd1" gradientUnits="userSpaceOnUse"  x1="46.786" y1="55.029" x2="48.735" y2="56.396">
			<stop offset="0" stop-color="#5fadcd"  />
			<stop offset="1" stop-color="#b6dae8"  />
		</linearGradient>
	</defs>
	<style>
		tspan { white-space:pre }
		.shp0 { fill: #2a5ec4 } 
		.shp1 { fill: #2a5ec3 } 
		.shp2 { fill: #4284ae } 
		.shp3 { fill: #79bbe4 } 
		.shp4 { fill: #90c4e4 } 
		.shp5 { fill: #86d3dd } 
		.shp6 { fill: #efc9a3 } 
		.shp7 { fill: #1b3ba1 } 
		.shp8 { fill: #12398b } 
		.shp9 { fill: #0f6399 } 
		.shp10 { fill: #ffac33 } 
		.shp11 { fill: #f17308 } 
		.shp12 { fill: #0a387e } 
		.shp13 { fill: #ffdcb6 } 
		.shp14 { fill: #ff9933 } 
		.shp15 { fill: #f2f2f7 } 
		.shp16 { fill: #5aa3af } 
		.shp17 { fill: #fd8c02 } 
		.shp18 { fill: #304dc4 } 
		.shp19 { fill: #7c074b } 
		.shp20 { fill: #fac244 } 
		.shp21 { fill: #e2b791 } 
		.shp22 { fill: #01284f } 
		.shp23 { fill: #8fb8d1 } 
		.shp24 { fill: #0d4d6c } 
		.shp25 { fill: url(#grd1) } 
		.shp26 { fill: #f9eeed } 
	</style>
	<path id="Layer" class="shp0" d="M28.94 100.54C22.27 97.18 7.96 88.73 1.64 84.59C-2.02 82.19 5.16 76.7 12.46 78.24C19.77 79.79 32.62 89.76 39.06 93.7C42.02 95.5 32.01 102.08 28.94 100.54Z" />
	<path id="Layer" class="shp1" d="M65.95 89.62C62.25 91.77 56.23 91.76 52.51 89.6C48.79 87.43 48.77 83.94 52.47 81.79C56.17 79.65 62.18 79.66 65.9 81.81C69.63 83.98 69.64 87.47 65.95 89.62Z" />
	<path id="Layer" class="shp2" d="M24.13 62.74L24.13 63.2L22.77 63.11L12.46 78.24L11.75 78.71L22.49 61.79L24.13 62.74Z" />
	<path id="Layer" class="shp2" d="M27.4 64.65L27.4 65.11L28.76 66.6L39.06 93.7L39.91 94.19L29.04 65.6L27.4 64.65Z" />
	<path id="Layer" class="shp2" d="M23.41 63.21L23.41 63.68L22.05 63.58L11.75 78.71L10.91 78.22L21.77 62.26L23.41 63.21Z" />
	<path id="Layer" class="shp2" d="M26.68 65.12L26.68 65.58L28.05 67.07L38.35 94.17L39.19 94.65L28.32 66.07L26.68 65.12Z" />
	<path id="Layer" class="shp3" d="M39.81 94.18L39.01 94.64L28.29 65.97L29.09 65.5L39.81 94.18Z" />
	<path id="Layer" class="shp2" d="M6.63 79.72L18.29 72.89L18.29 72.27L6.63 79.1L6.63 79.72Z" />
	<path id="Layer" class="shp4" d="M2.84 77.57L6.63 79.72L6.63 79.1L2.84 76.95L2.84 77.57Z" />
	<path id="Layer" class="shp3" d="M6.62 79.09L18.28 72.27L14.51 70.13L2.85 76.96L6.62 79.09Z" />
	<path id="Layer" class="shp3" d="M22.01 81.23L33.67 74.4L33.67 73.79L22.01 80.61L22.01 81.23Z" />
	<path id="Layer" class="shp2" d="M18.22 79.08L22.02 81.23L22.02 80.61L18.22 78.46L18.22 79.08Z" />
	<path id="Layer" class="shp5" d="M22 80.6L33.67 73.78L29.9 71.64L18.23 78.47L22 80.6Z" />
	<path id="Layer" class="shp2" d="M10.22 74.54L21.88 67.71L21.88 67.1L10.22 73.92L10.22 74.54Z" />
	<path id="Layer" class="shp4" d="M6.43 72.39L10.23 74.54L10.23 73.92L6.43 71.77L6.43 72.39Z" />
	<path id="Layer" class="shp3" d="M10.21 73.91L21.88 67.09L18.11 64.95L6.44 71.78L10.21 73.91Z" />
	<path id="Layer" class="shp3" d="M25.76 90.81L37.42 83.99L37.42 83.37L25.76 90.19L25.76 90.81Z" />
	<path id="Layer" class="shp2" d="M21.97 88.66L25.77 90.81L25.77 90.19L21.97 88.04L21.97 88.66Z" />
	<path id="Layer" class="shp5" d="M25.75 90.18L37.42 83.36L33.65 81.23L21.98 88.05L25.75 90.18Z" />
	<path id="Layer" class="shp3" d="M17.42 73.56L29.08 66.74L29.08 65.5L17.42 72.33L17.42 73.56Z" />
	<path id="Layer" class="shp2" d="M10.9 69.84L17.42 73.56L17.42 72.32L10.9 68.61L10.9 69.84Z" />
	<path id="Layer" class="shp5" d="M17.41 72.32L29.07 65.5L22.57 61.79L10.91 68.61L17.41 72.32Z" />
	<path id="Layer" class="shp2" d="M15.78 71.46L15.78 71.92L17.14 73.42L27.44 100.51L28.29 101L17.42 72.41L15.78 71.46Z" />
	<path id="Layer" class="shp3" d="M28.95 100.54L28.15 101L17.42 72.33L18.22 71.86L28.95 100.54Z" />
	<path id="Layer" class="shp3" d="M1.64 84.59L0.84 85.05L11.14 69.93L11.94 69.46L1.64 84.59Z" />
	<path id="Layer" class="shp2" d="M12.51 69.56L12.51 70.02L11.14 69.93L0.84 85.05L0 84.57L10.87 68.61L12.51 69.56Z" />
	<path id="Layer" class="shp6" d="M26.32 22.56C26.32 22.56 27.16 21.06 27.77 20.33C28.4 19.56 28.47 19.63 28.72 19.39C28.97 19.16 29.45 18.02 29.45 18.02C29.45 18.02 29.01 17.39 28.9 17.05C28.8 16.71 28.75 15.83 28.75 15.83C28.75 15.83 28.18 15.09 28.57 15.08C28.97 15.08 29.08 15.55 29.11 15.66C29.14 15.78 29.46 16.33 29.46 16.33L29.73 15.4C29.73 15.4 30.25 13.13 30.43 13.08C30.6 13.03 30.66 13.09 30.64 13.49C30.61 13.89 30.38 15.23 30.38 15.23C30.38 15.23 30.5 15.43 30.57 15.18C30.64 14.93 31.08 12.83 31.33 12.91C31.58 12.99 31.54 13.16 31.38 13.86C31.22 14.54 30.98 15.33 30.98 15.33C30.98 15.33 31.2 15.44 31.26 15.24C31.33 15.05 31.84 13.54 32.03 13.49C32.21 13.44 32.31 13.57 32.14 14.08C31.97 14.59 31.68 15.64 31.68 15.64L31.83 15.87C31.83 15.87 32.43 14.46 32.61 14.5C32.79 14.54 32.76 14.81 32.64 15.13C32.52 15.43 31.84 17.72 31.61 18.11C31.37 18.5 30.82 19.03 30.82 19.03C30.82 19.03 29.51 22.83 29.02 23.59C28.54 24.34 27.79 24.29 27.41 24.33L26.32 22.56Z" />
	<path id="Layer" class="shp7" d="M20.38 27.76C20.38 27.76 20.01 26.62 20.97 25.59C21.93 24.54 25.72 23.14 25.75 23.04C25.77 22.95 26.63 21.72 26.63 21.72C26.63 21.72 28.64 22.03 28.99 22.49C29.34 22.94 29.38 23.04 29.37 23.13C29.36 23.21 25.7 27.6 24 28.78C22.3 29.96 20.57 28.42 20.38 27.76Z" />
	<path id="Layer" class="shp8" d="M25.99 22.46C25.99 22.46 26.07 21.35 26.72 21.32C27.36 21.29 29.13 21.71 29.48 22.47C29.84 23.23 29.26 23.83 29.18 23.84C29.11 23.85 27.94 23.86 27.5 23.39C27.06 22.92 25.99 22.46 25.99 22.46Z" />
	<path id="Layer" class="shp9" d="M23.84 61.98C24.3 62.56 24.73 63.09 25.49 63.3C26.25 63.52 27.36 64.14 27.55 64.97C27.74 65.79 27.49 66.15 26.48 66.36C25.04 66.67 23.93 65.09 22.99 64.6C22.05 64.11 20.76 63.98 20.47 63.27C20.18 62.56 20.8 62.25 20.87 61.68C21.47 61.88 22.48 62.27 22.99 62.28C23.5 62.31 23.48 62.12 23.84 61.98Z" />
	<path id="Layer" class="shp10" d="M23.85 61.75C24.3 62.31 24.76 62.8 25.5 63C26.25 63.2 27.38 63.83 27.55 64.66C27.73 65.48 27.5 65.85 26.49 66.06C25.04 66.35 23.94 64.76 23.01 64.29C22.08 63.81 20.76 63.7 20.48 63.01C20.2 62.33 20.82 62.03 20.88 61.48C21.48 61.68 22.49 62.03 23 62.05C23.51 62.07 23.49 61.89 23.85 61.75Z" />
	<path id="Layer" class="shp11" d="M23.84 61.75C24.17 62.04 24.65 62.59 24.97 62.8C25.28 63.01 26.08 63.45 25.41 63.72C24.74 63.98 23.55 62.9 23.26 62.26C23.09 61.88 23.59 61.82 23.84 61.75Z" />
	<path id="Layer" class="shp12" d="M25.02 42.37C25.24 44.37 25.87 44.4 25.91 46.81C25.96 49.21 24.83 54.74 24.64 56.75C24.44 58.77 24.18 57.79 24.21 58.65C24.25 59.51 24.4 59.47 24.18 59.95C23.96 60.42 24.03 60.34 23.99 60.78C23.94 61.21 24.42 61.53 24.06 62.01C23.7 62.49 22.48 62.45 21.95 62.28C21.41 62.12 20.68 61.94 20.49 61.5C20.31 61.05 20.23 60.33 20.49 60.03C20.74 59.72 19.93 60.16 19.96 59.51C19.98 58.86 20.02 58.33 20.08 57.73C20.14 57.13 20.46 56.63 20.54 56.04C20.37 55.61 20.18 55.23 20.06 54.72C20.4 52.62 20.88 49.41 21.08 47.57C21.27 45.73 21.17 45.65 21.34 44.12C22.31 44.19 23.9 43.67 24.51 43.16C25.11 42.65 24.83 43 25.02 42.37Z" />
	<path id="Layer" class="shp9" d="M15.94 67C16.53 67.92 17.71 68.73 18.44 69.4C19.17 70.06 19.36 70.39 18.85 71.32C18.34 72.24 16.23 71.75 15.48 71.29C14.73 70.84 13.08 68.61 12.94 68.36C12.31 67.22 12.78 67.67 12.92 66.9C13.45 67.05 13.92 67.22 14.44 67.29C14.97 67.36 15.43 67.12 15.94 67Z" />
	<path id="Layer" class="shp10" d="M15.98 66.66C16.4 67.58 17.39 68.47 18.06 69.08C18.73 69.69 19.39 69.98 18.84 70.94C18.31 71.89 16.29 71.48 15.45 70.89C14.61 70.3 13.18 68.51 12.94 67.83C12.49 66.61 13.12 66.79 13.23 65.86C13.63 66.27 13.94 66.78 14.48 66.92C15.02 67.07 15.46 66.74 15.98 66.66Z" />
	<path id="Layer" class="shp11" d="M15.73 66.57C16.11 67.22 16.88 68.13 17.09 68.81C17.3 69.5 16.31 69.28 15.93 68.89C15.56 68.49 15.02 67.39 15.01 66.7C15.19 66.54 15.53 66.23 15.73 66.57Z" />
	<path id="Layer" class="shp8" d="M22.01 42.9C22.13 45.53 21.27 50.98 20.27 52.96C19.28 54.93 19.31 55.24 18.68 56.49C18.05 57.73 17.34 57.55 17.12 58.74C16.91 59.94 16.52 60.67 16.37 61.97C16.21 63.27 16.71 65.56 16.1 66.76C15.48 67.96 14.21 67.3 13.45 66.89C12.69 66.48 12.51 65.92 12.5 65.1C12.49 64.28 13.26 64.51 12.91 63.35C12.55 62.18 12.6 59.22 12.99 58.08C13.37 56.94 13.86 56.62 14.17 55.78C14.49 54.94 14.52 54.86 14.71 53.96C14.91 53.06 14.65 53.7 14.6 52.03C14.54 50.36 14.17 45.43 14.64 43.72C15.11 42.01 16.13 43.05 16.52 41.8C17.56 42.24 17.53 42.15 18.61 42.5C19.69 42.86 20.94 42.59 22.01 42.9Z" />
	<path id="Layer" class="shp7" d="M21.47 27.04C22.63 27.12 22.83 26.52 23.55 27.87C24.27 29.23 25.72 32.6 25.54 34.32C25.35 36.03 25.06 38.06 25.13 39.3C25.2 40.55 25.11 39.86 25.24 41.01C25.38 42.15 24.16 43.94 22.88 44.48C21.6 45.01 19.4 44.4 18.29 44.1C17.18 43.8 16.89 43.63 16.3 42.89C15.83 42.31 15.15 41.6 15.57 40.76C16 39.92 16.18 39.6 15.83 38.56C15.49 37.52 15.25 36.66 15 35.41C14.75 34.16 14.34 31.97 15.03 30.72C15.72 29.46 17.47 28.84 18.1 27.57C19.41 27.62 20.31 26.95 21.47 27.04Z" />
	<path id="Layer" class="shp7" d="M21.69 31.7C22.36 33.11 22.41 32.55 23 34.48C23.59 36.42 23.5 40.41 23.47 42.81C23.3 43.1 23.08 43.2 22.87 43.38C22.89 40.34 23.12 36.94 22.25 34.14C21.88 32.97 21.72 32.91 21.33 31.94C21.45 31.89 21.59 31.86 21.69 31.7Z" />
	<path id="Layer" class="shp8" d="M21.61 31.72C22.29 33.14 22.33 32.55 22.93 34.51C23.53 36.48 23.44 40.44 23.39 42.86C23.22 43.15 22.99 43.24 22.79 43.42C22.81 40.39 23.04 36.96 22.16 34.16C21.8 33 21.64 32.94 21.24 31.97C21.37 31.9 21.51 31.88 21.61 31.72Z" />
	<path id="Layer" class="shp8" d="M23.92 36.38C24.28 36.24 24.53 36.29 24.97 36.06C24.98 36.06 25.59 35.38 25.64 35.07C25.78 34.26 25.6 33.03 25.22 32.23C24.78 32.86 24.19 33.27 23.54 33.68C23.59 34.58 23.77 35.48 23.92 36.38Z" />
	<path id="Layer" class="shp8" d="M19.55 39.2C20.01 39.16 20.33 39.3 20.88 39.14C20.89 39.14 21.57 38.4 21.66 38.08C21.9 37.25 21.82 36.03 21.4 35.2C20.83 35.95 20.04 36.35 19.16 36.67C19.29 37.53 19.27 38.38 19.55 39.2Z" />
	<path id="Layer" class="shp9" d="M21.44 27.87C20.92 27.54 18.74 27.8 18.74 27.8C18.74 27.8 17.6 27.94 17.69 28.52C17.78 29.1 19.89 31.54 20.05 31.61C20.21 31.69 22.27 32.27 22.27 32.27C22.27 32.27 22.38 28.46 21.44 27.87Z" />
	<path id="Layer" class="shp8" d="M19.57 27.1C20.27 27.4 20.96 27.86 21.33 28.62C21.69 29.38 22.36 31.01 22.08 31.88C20.73 32.19 19.71 30.79 19.03 30.11C18.34 29.44 18.03 28.66 17.99 28.17C17.96 27.68 18.12 27.46 17.68 27.5C17.24 27.55 16.79 28.74 16.98 29.32C17.16 29.9 17.68 30.8 18.03 31.38C18.35 31.28 18.68 31.16 19.01 31.09C19.31 31.55 19.61 31.99 19.93 32.43C20.92 32.43 21.34 32.62 22.28 32.27C22.7 31.39 22.67 30.56 23.03 29.66C22.8 29.47 22.55 29.34 22.34 29.17C22.44 28.9 22.6 28.71 22.56 28.33C22.52 27.95 21.42 27.52 21.05 27.14C20.67 26.76 20.12 27.11 19.57 27.1Z" />
	<path id="Layer" class="shp6" d="M21.44 26.89L21.44 29.46C21.44 29.46 20.97 30.09 20.26 30.18C19.56 30.26 18.54 29.62 18.29 28.98C18.03 28.33 17.99 28.17 17.99 28.17C17.99 28.17 17.95 27.61 17.99 27.03C18.03 26.45 17.68 25.78 17.68 25.78L21.44 26.89Z" />
	<path id="Layer" class="shp13" d="M21.48 22.18C21.56 22.25 22.32 22.75 22.33 23.12C22.35 23.48 22.4 23.46 22.33 23.63C22.26 23.81 22.77 24.23 22.98 25.02C23.13 25.55 23.08 27.27 22.97 27.29C22.86 27.3 22.84 27.5 22.54 27.55C22.25 27.6 19.86 27.59 19.51 27.34C19.41 27.26 18.93 26.82 18.93 26.82C18.93 26.82 17.76 27.14 17.45 26.19C17.33 25.81 17.76 25.93 17.76 25.93C17.76 25.93 15.53 23.53 17.09 22.01C19.09 20.04 20.37 21.39 21.48 22.18Z" />
	<path id="Layer" class="shp8" d="M19.29 23.99C19.29 23.99 16.39 24.28 15.35 26.94C15.1 27.57 18.11 25.69 18.11 25.69C18.11 25.69 19.06 24.95 18.95 24.8C18.84 24.65 19.29 23.99 19.29 23.99Z" />
	<path id="Layer" class="shp7" d="M21.98 22.27C21.98 22.27 21.12 20.76 19.57 20.72C18.03 20.68 17.31 21.41 17.31 21.41C17.31 21.41 15.94 22.56 16.49 24.37C16.89 25.7 17.27 25.71 17.72 25.71C18.41 25.71 18.81 25.49 19.98 24.71C21.97 23.38 21.98 22.27 21.98 22.27Z" />
	<path id="Layer" class="shp6" d="M13.9 42.78L14.46 47.05L15.79 47.89C15.79 47.89 16.3 48.6 16.43 49.13C16.61 49.87 16.54 49.98 16.54 49.98L15.78 49.54C15.78 49.54 15.46 49.23 15.35 49.29C15.12 49.41 15.32 50.31 15.32 50.31L15.91 50.77L15.15 51.47C15.15 51.47 13.45 51.25 13.41 51.12C13.36 50.99 12.99 48.06 12.95 47.89C12.91 47.72 12.6 47.3 12.6 47C12.61 46.7 11.76 43.61 11.73 43.15C11.69 42.69 11.66 42.38 11.79 42.36C11.92 42.33 13.69 42.09 13.9 42.78Z" />
	<path id="Layer" class="shp7" d="M17.23 32.39C17.23 32.39 17.01 34.7 16.52 35.34C16.02 35.99 13.97 39.08 14.11 39.83C14.25 40.57 14.57 42.76 14.3 42.91C14.03 43.07 13.06 43.65 12.46 43.38C11.87 43.12 11.55 42.94 11.35 42.84C11.15 42.73 11.23 39.4 11.46 39.05C11.69 38.7 12.29 35.76 12.66 34.96C13.03 34.16 14.74 30.66 15.34 30.45C15.93 30.24 17.19 30.51 17.23 32.39Z" />
	<path id="Layer" class="shp12" d="M25.08 42.04C25.08 42.04 24.53 43.67 22.18 44.19C19.84 44.71 17.72 43.47 17.16 43.19C16.6 42.91 15.55 41.8 15.55 41.8L15.28 42.72C15.28 42.72 17.37 45.51 21.57 45.11C24.37 44.84 25.13 43.09 25.13 43.09L25.08 42.04Z" />
	<path id="Layer" class="shp3" d="M23.14 43.96L23.19 44.73C23.19 44.85 23.12 44.97 23 45C22.74 45.08 22.3 45.2 22.2 45.19C22.06 45.17 22.14 45.08 22.14 45.08L22.74 44.89C22.85 44.86 22.93 44.75 22.92 44.64L22.91 44.26C22.91 44.14 22.79 44.05 22.67 44.07C22.42 44.13 22.07 44.21 22.09 44.21C22.12 44.21 21.95 44 22.22 43.92C22.4 43.86 22.7 43.82 22.91 43.78C23.03 43.76 23.13 43.85 23.14 43.96Z" />
	<path id="Layer" class="shp4" d="M23.28 44.22L22.66 44.49L22.66 44.58L23.28 44.33L23.28 44.22Z" />
	<path id="Layer" class="shp14" d="M42.97 22.47C39.8 24.32 34.64 24.31 31.45 22.45C28.26 20.6 28.31 17.72 31.41 15.76C36.81 12.34 38.92 13.13 42.94 15.78C46.02 17.81 46.15 20.63 42.97 22.47Z" />
	<path id="Layer" class="shp10" d="M38.93 15.75C37.99 16.3 36.47 16.31 35.52 15.76C34.58 15.22 34.56 14.33 35.5 13.78C36.44 13.23 37.96 13.23 38.91 13.77C39.86 14.32 39.87 15.2 38.93 15.75Z" />
	<path id="Layer" class="shp10" d="M39.62 13.14L34.79 13.14L34.79 14.77L39.62 14.77L39.62 13.14Z" />
	<path id="Layer" class="shp14" d="M38.93 14.08C37.99 14.62 36.46 14.62 35.52 14.07C34.58 13.53 34.57 12.64 35.51 12.09C36.44 11.55 37.97 11.55 38.91 12.1C39.86 12.65 39.86 13.53 38.93 14.08Z" />
	<path id="Layer" class="shp15" d="M36.98 0L36.98 13.14C36.98 13.14 37.12 13.37 37.26 13.37C37.4 13.37 37.46 13.08 37.46 13.08L37.46 0L36.98 0Z" />
	<path id="Layer" class="shp8" d="M57.97 46.2C57.97 46.2 56.35 45.8 56.01 47.11C55.66 48.41 56.02 50.32 56.16 50.41C56.3 50.5 58.07 48.68 58.27 48.21C58.46 47.73 57.97 46.2 57.97 46.2Z" />
	<path id="Layer" class="shp13" d="M54.89 54.57C54.89 54.57 52.84 55.6 52.05 55.78C51.27 55.96 50.23 55.87 50.23 55.87L49.23 55.67C49.23 55.67 48.45 55.73 48.17 55.84C47.91 55.95 48.09 56.05 48.37 56.19C48.65 56.33 49.17 56.15 49.17 56.15L49.33 56.42C49.33 56.42 48.31 56.59 48.3 56.59C48.28 56.59 47.39 56.73 47.37 56.74C47.34 56.75 46.87 57.28 46.87 57.28C46.87 57.28 46.79 57.68 46.78 57.73C46.77 57.79 46.84 57.91 46.99 57.84C47.14 57.77 47.22 57.43 47.22 57.43L47.6 57.23L48.13 57.27L47.3 57.68C47.3 57.68 47.08 58.29 47.11 58.44C47.13 58.58 47.3 58.59 47.35 58.78C47.42 58.98 47.42 59.04 47.57 58.97C47.71 58.9 47.7 58.69 47.7 58.69C47.7 58.69 47.77 59.13 47.81 59.13C47.85 59.13 47.95 59.17 48.01 59.06C48.04 59.02 48.06 58.93 48.08 58.85C48.09 58.75 48.11 58.65 48.13 58.65C48.15 58.64 48.47 58.45 48.51 58.45C48.54 58.46 48.72 58.5 48.72 58.5L48.29 58.64C48.29 58.64 48.15 58.8 48.14 58.84C48.14 58.88 47.93 59.23 47.9 59.33C47.86 59.43 47.82 59.54 47.99 59.49C48.16 59.45 48.34 59.13 48.36 59.13C48.39 59.13 48.91 58.78 48.93 58.78C48.96 58.78 49.33 58.8 49.85 58.67C50.37 58.53 51.34 57.67 51.37 57.63C51.38 57.6 52.57 57.24 53.17 57.24C53.78 57.23 55.31 57.07 56.13 56.59C56.94 56.12 56.19 54.14 54.89 54.57Z" />
	<path id="Layer" class="shp16" d="M55.63 79.8C55.63 79.8 53.38 81.8 52.66 82.09C51.95 82.37 51.58 83.34 51.69 83.91C51.8 84.47 52.51 84.85 53.47 84.6C54.42 84.35 55.5 83.81 55.81 83.38C56.12 82.95 57.41 82.56 57.85 82.29C58.28 82.02 58.26 81.49 58.22 80.74C58.19 80 57.85 79.69 57.85 79.69L55.63 79.8Z" />
	<path id="Layer" class="shp16" d="M60.41 85.51C60.41 85.51 59.5 87.77 59.22 88.04C58.95 88.3 58.29 90.02 58.67 90.24C59.05 90.47 60.83 91.01 61.6 89.94C62.37 88.87 62.31 87.6 62.31 87.6C62.31 87.6 62.69 86.05 62.68 85.93C62.68 85.81 62.31 84.84 62.31 84.84L60.41 85.51Z" />
	<path id="Layer" class="shp17" d="M55.62 79.39C55.62 79.39 53.36 81.39 52.65 81.68C51.93 81.96 51.57 82.92 51.68 83.49C51.79 84.06 52.5 84.44 53.45 84.19C54.4 83.94 55.48 83.39 55.79 82.96C56.1 82.53 57.39 82.14 57.83 81.88C58.27 81.61 58.24 81.07 58.21 80.33C58.17 79.59 57.83 79.28 57.83 79.28L55.62 79.39Z" />
	<path id="Layer" class="shp17" d="M60.39 85.09C60.39 85.09 59.47 87.36 59.2 87.62C58.93 87.89 58.27 89.6 58.65 89.83C59.03 90.06 60.8 90.6 61.58 89.53C62.35 88.46 62.29 87.18 62.29 87.18C62.29 87.18 62.67 85.64 62.66 85.52C62.66 85.39 62.28 84.42 62.28 84.42L60.39 85.09Z" />
	<path id="Layer" class="shp12" d="M55.84 57.51C55.84 57.51 55.12 57.88 54.63 59.06C54.13 60.23 53.91 64.29 53.88 65.39C53.85 66.5 55.11 71.38 54.92 72.5C54.73 73.62 54.85 80.06 54.85 80.06C54.85 80.06 56.39 80.87 57.51 80.37C58.63 79.87 58.21 79.68 58.55 78.34C58.9 77.01 59.41 74.06 59.3 73.45C59.19 72.83 58.7 71.1 58.7 71.1C58.7 71.1 58.63 68.7 59.37 66.68C60.11 64.67 58.49 59.46 58.31 59.33C58.13 59.21 55.84 57.51 55.84 57.51Z" />
	<path id="Layer" class="shp8" d="M59.03 59.4L57.75 60.62C57.75 60.62 59.26 67.46 59.52 69.81C59.77 72.15 59.42 73.94 59.72 75.16C60.02 76.38 60.98 79.05 60.2 81.31C59.42 83.58 59.87 85.92 60.23 85.94C60.6 85.95 62.97 85.76 63.1 85.23C63.24 84.71 64.96 78.69 64.57 77.31C64.17 75.93 63.55 74.78 63.46 73.88C63.38 72.96 65.22 68.63 65.11 66.24C64.99 63.86 65.02 61.95 64.27 60.67C63.51 59.4 62.6 59.13 62.6 59.13L59.03 59.4Z" />
	<path id="Layer" class="shp18" d="M57.97 46.2C57.97 46.2 56.68 46.73 56.36 47.73C56.04 48.72 54.49 52.54 54.36 53.54C54.23 54.53 56.08 57.23 56.08 57.23C56.08 57.23 55.64 58.47 57.22 59.3C58.04 59.72 61.14 59.66 61.91 59.16C62.67 58.66 62.56 58.28 62.56 58.28C62.56 58.28 63.8 54.92 64.48 52.98C65.16 51.04 66.02 49.23 64.74 48.18C63.46 47.13 62.57 45.82 60.95 45.88C59.32 45.93 58.39 45.98 57.97 46.2Z" />
	<path id="Layer" class="shp19" d="M56.08 57.24L55.86 57.8C55.86 57.8 55.29 60.21 58.36 60.23C61.42 60.25 62.6 59.13 62.6 59.13L62.6 58.06C62.6 58.06 62.37 59.14 58.79 59.22C57.44 59.26 56.91 58.9 56.41 58.51C55.91 58.14 56.08 57.24 56.08 57.24Z" />
	<path id="Layer" class="shp20" d="M59.02 46.27C59.02 46.27 58.17 46.52 58.03 47.88C57.96 48.51 57.92 51.22 57.92 51.22C57.92 51.22 60.87 48.92 61.31 48.55C62.13 47.85 62.13 46.35 61.95 46.07C61.78 45.79 59.02 46.27 59.02 46.27Z" />
	<path id="Layer" class="shp8" d="M63.34 49.04C63.29 49.2 62.72 53.11 63.4 54.55C64.08 55.99 64.92 57.36 64.92 57.36C64.92 57.36 66.93 57.48 67.51 56.68C68.09 55.88 66.73 50.68 66.07 49.6C65.4 48.52 64.02 47.05 63.34 49.04Z" />
	<path id="Layer" class="shp13" d="M65.52 57.64C65.52 57.64 65.68 63.39 65.81 63.74C65.94 64.11 65.63 65.36 65.63 65.36L64.6 66.22L64.15 67.66C64.15 67.66 63.91 68.74 64.2 68.71C64.48 68.67 64.66 67.64 64.66 67.64L65.16 67.31L65.53 68.3L65.24 69.05C65.24 69.05 64.97 69.29 64.92 69.57C64.87 69.84 64.98 69.7 65.12 69.69C65.25 69.67 65.6 69.38 65.6 69.38L65.89 68.86L66.15 68.34L66.12 68.94L65.98 69.34C65.98 69.34 65.72 69.53 65.73 69.69C65.73 69.86 66.21 69.67 66.21 69.67L66.7 69.03L66.68 68.83C66.68 68.83 67.04 68.7 67.12 68.49C67.19 68.29 67.13 68.05 67.16 68.03C67.18 68 67.45 67.83 67.5 67.64C67.55 67.45 67.11 65.75 67.11 65.56C67.11 65.36 67.42 65.17 67.39 64.99C67.36 64.8 67.5 63.62 67.62 62.91C67.74 62.19 68.09 59.61 67.91 58.75C67.74 57.9 67.75 57.18 67.53 57.07C67.31 56.96 65.52 57.64 65.52 57.64Z" />
	<path id="Layer" class="shp18" d="M65.14 58.35C65.14 58.35 64.32 57.23 64.67 56.96C65.02 56.7 65.42 57.31 66.47 57C67.52 56.69 67.65 55.8 67.65 55.8C67.65 55.8 68.01 55.99 68.01 56.66C68 57.33 67.73 58.45 66.94 58.51C66.14 58.58 65.57 58.57 65.14 58.35Z" />
	<path id="Layer" class="shp8" d="M57.92 51.22C57.92 51.22 60.95 50.24 61.44 50.04C61.92 49.84 61.62 49.25 61.62 49.25C61.62 49.25 62.51 49.38 62.89 48.89C63.27 48.41 63.75 47.19 63.13 46.75C62.52 46.31 61.65 45.33 61.82 45.63C62.13 46.18 62.07 47.34 61.8 47.89C61.53 48.43 57.92 51.22 57.92 51.22Z" />
	<path id="Layer" class="shp8" d="M58.88 46.01C58.88 46.01 58.02 45.81 57.11 47.25C56.96 47.48 57.43 47.7 57.43 47.7L56.96 48.53L57.92 51.22C57.92 51.22 57.98 47.4 58.32 46.92C58.64 46.43 58.88 46.01 58.88 46.01Z" />
	<path id="Layer" class="shp21" d="M58.68 45.06C58.68 45.06 58.83 46.78 58.65 47.16C58.48 47.54 59.26 48.6 60.69 47.98C61.16 47.78 62 46.67 61.98 46.24C61.96 45.8 61.56 45.2 61.58 44.67C61.59 44.13 61.57 43.68 61.57 43.68L58.68 45.06Z" />
	<path id="Layer" class="shp13" d="M58.33 40.66C58.33 40.66 57.37 42.03 57.52 42.68C57.67 43.33 57.73 44.6 57.74 44.85C57.75 45.1 57.98 46.03 59.08 45.71C60.18 45.39 61.34 44.55 61.59 44.25C61.84 43.96 62.01 43.66 62.01 43.66C62.01 43.66 62.33 44.09 62.84 43.62C63.35 43.14 63.66 41.96 63.3 41.97C62.93 41.99 62.76 42.11 62.76 42.11C62.76 42.11 61.94 40.08 61.7 40.09C61.44 40.1 59.26 39.14 58.33 40.66Z" />
	<path id="Layer" class="shp22" d="M58.93 39.85C58.93 39.85 61.12 40.92 61.39 41.9C61.53 42.41 61.45 43.32 61.45 43.32L62.74 42.11C62.74 42.11 63.18 41.53 62.6 40.84C62.04 40.15 58.93 39.85 58.93 39.85Z" />
	<path id="Layer" class="shp22" d="M62.01 43.66L61.58 44.25C61.58 44.25 61.54 44.96 61.59 45.14C61.63 45.33 61.67 45.55 61.81 45.62C61.96 45.7 62.87 46.54 62.87 46.54C62.87 46.54 62.9 45.53 62.71 44.92C62.55 44.37 62.01 43.66 62.01 43.66Z" />
	<path id="Layer" class="shp17" d="M60.71 37.73C60.71 37.73 58.81 37.77 58.43 38.64C58.06 39.52 58 40.31 58 40.31C58 40.31 61.36 41.44 61.76 41.5C62.15 41.55 62.75 42.1 62.75 42.1C62.75 42.1 64.14 40 62.68 38.44C61.84 37.55 60.71 37.73 60.71 37.73Z" />
	<path id="Layer" class="shp20" d="M58 40.31C58 40.31 56.5 41.16 56.84 41.35C57.17 41.54 57.78 41.23 58.67 41.51C59.56 41.79 59.5 42.22 60.19 42.12C60.88 42.02 62.43 41.87 62.43 41.87C62.43 41.87 61.01 40.17 58 40.31Z" />
	<path id="Layer" class="shp22" d="M57.77 51.23C57.77 51.23 55.97 53.8 55.93 54.98C55.9 56.16 56.23 57.34 56.54 57.59C56.86 57.84 56.75 58.83 56.75 58.83L57.09 58.9C57.09 58.9 57.06 57.8 56.91 57.57C56.75 57.35 55.95 56.01 56.17 55.02C56.39 54.05 58.12 51.21 58.12 51.21L57.77 51.23Z" />
	<path id="Layer" class="shp22" d="M55.14 51.06C55.14 51.06 55.36 51.63 55.77 51.85C56.18 52.06 56.44 52.05 56.44 52.05C56.44 52.05 55.77 53.87 55.63 54.32C55.49 54.76 55 55.08 55 55.08C55 55.08 54.11 54.51 54.36 53.54C54.61 52.57 55.14 51.06 55.14 51.06Z" />
	<path id="Layer" class="shp22" d="M57.92 52.93C57.92 52.93 58.02 53.39 59.24 53.62L60.33 53.73L59.59 55.77L58.16 56.27L57.29 55.44C57.29 55.44 57.14 54.54 57.36 54.09C57.59 53.64 57.92 52.93 57.92 52.93Z" />
	<path id="Layer" class="shp16" d="M57.68 59.11C57.68 59.11 57.85 58.99 57.55 58.94C57.25 58.89 56.76 58.58 56.66 58.77C56.55 58.96 56.38 59.69 56.52 59.83C56.65 59.97 57.42 60.29 57.5 60.19C57.56 60.1 57.71 60.08 57.49 60.01C57.26 59.95 56.67 59.81 56.64 59.71C56.62 59.61 56.73 58.89 56.81 58.92C56.9 58.93 57.55 59.12 57.68 59.11Z" />
	<path id="Layer" class="shp23" d="M56.32 59.21C56.32 59.21 56.74 59.58 56.83 59.55C56.91 59.51 56.87 59.41 56.87 59.41L56.31 59.11L56.32 59.21Z" />
	<path id="Layer" class="shp24" d="M49.23 57.69C49.12 57.88 48.85 58.05 48.62 58.05C48.4 58.05 48.3 57.89 48.41 57.7C48.52 57.5 48.8 57.34 49.02 57.34C49.25 57.33 49.34 57.49 49.23 57.69Z" />
	<path id="Layer" class="shp24" d="M49.33 57.83C49.22 58.03 48.95 58.19 48.72 58.19C48.5 58.19 48.4 58.04 48.51 57.84C48.62 57.65 48.9 57.48 49.12 57.48C49.35 57.48 49.44 57.64 49.33 57.83Z" />
	<path id="Layer" class="shp24" d="M49.43 57.98C49.32 58.17 49.05 58.34 48.82 58.34C48.6 58.34 48.5 58.18 48.61 57.99C48.72 57.79 49 57.63 49.22 57.63C49.45 57.62 49.54 57.78 49.43 57.98Z" />
	<path id="Layer" class="shp24" d="M49.53 58.12C49.42 58.31 49.15 58.48 48.92 58.48C48.7 58.48 48.6 58.32 48.71 58.12C48.82 57.93 49.1 57.77 49.32 57.77C49.55 57.77 49.64 57.92 49.53 58.12Z" />
	<path id="Layer" class="shp25" d="M49.15 57.45C49.11 57.59 48.61 57.94 48.3 57.81C48 57.67 48.01 57.47 47.86 57.35C47.73 57.23 47.15 56.98 47.07 56.95C46.55 56.73 46.2 56.22 46.2 55.63C46.2 54.83 46.83 54.19 47.63 54.19C48.41 54.19 49.05 54.83 49.05 55.63C49.05 55.73 49.04 55.83 49.02 55.93C49 56.07 48.92 56.68 48.99 56.81C49.07 56.95 49.18 57.3 49.15 57.45Z" />
	<path id="Layer" class="shp26" d="M47.09 54.8C47.09 54.8 46.58 54.92 46.51 55.51C46.43 56.1 46.71 56.26 46.71 56.26C46.71 56.26 46.63 55.62 46.71 55.43C46.79 55.24 47.09 54.8 47.09 54.8Z" />
</svg>