<svg width="76" height="89" viewBox="0 0 76 89" fill="none" xmlns="http://www.w3.org/2000/svg">
<path d="M26.7254 46.5056V47.0177L25.2154 46.9128L13.8048 63.6585L13.0129 64.1829L24.9085 45.4566L26.7254 46.5056Z" fill="#4284AE"/>
<path d="M30.3464 48.6156V49.1277L31.8564 50.7751L43.2671 80.7619L44.2001 81.3049L32.1633 49.6707L30.3464 48.6156Z" fill="#4284AE"/>
<path d="M25.9335 47.0299V47.542L24.4235 47.4371L13.0128 64.1828L12.0798 63.6399L24.1166 45.9748L25.9335 47.0299Z" fill="#4284AE"/>
<path d="M29.5554 49.1339V49.646L31.0653 51.2996L42.476 81.2864L43.409 81.8232L31.3722 50.189L29.5554 49.1339Z" fill="#4284AE"/>
<path d="M44.0959 81.2925L43.2059 81.8108L31.3287 50.0779L32.2188 49.5596L44.0959 81.2925Z" fill="#79BBE4"/>
<path d="M7.34082 65.2936L20.2615 57.7414V57.0565L7.34082 64.6087V65.2936Z" fill="#4284AE"/>
<path d="M3.14246 62.9116L7.34704 65.2932V64.6084L3.14246 62.2267V62.9116Z" fill="#90C4E4"/>
<path d="M7.33487 64.6024L20.2494 57.0502L16.0755 54.687L3.15485 62.2392L7.33487 64.6024Z" fill="#79BBE4"/>
<path d="M24.3806 66.9657L37.2951 59.4135V58.7286L24.3806 66.2809V66.9657Z" fill="#79BBE4"/>
<path d="M20.1822 64.584L24.3868 66.9657V66.2808L20.1822 63.8991V64.584Z" fill="#4284AE"/>
<path d="M24.3702 66.2684L37.2908 58.7223L33.1169 56.3592L20.1963 63.9114L24.3702 66.2684Z" fill="#86D3DD"/>
<path d="M11.3246 59.5616L24.2392 52.0094V51.3307L11.3246 58.8767V59.5616Z" fill="#4284AE"/>
<path d="M7.12628 57.1799L11.3309 59.5616V58.8767L7.12628 56.5012V57.1799Z" fill="#90C4E4"/>
<path d="M11.313 58.8705L24.2337 51.3182L20.0598 48.9551L7.13916 56.5073L11.313 58.8705Z" fill="#79BBE4"/>
<path d="M28.5358 77.5656L41.4503 70.0195V69.3346L28.5358 76.8869V77.5656Z" fill="#79BBE4"/>
<path d="M24.3375 75.19L28.542 77.5655V76.8868L24.3375 74.5051V75.19Z" fill="#4284AE"/>
<path d="M28.5248 76.8747L41.4455 69.3225L37.2716 66.9655L24.351 74.5115L28.5248 76.8747Z" fill="#86D3DD"/>
<path d="M19.2923 58.4753L32.2129 50.9293V49.5595L19.2923 57.1117V58.4753Z" fill="#79BBE4"/>
<path d="M12.0675 54.3601L19.2982 58.4755V57.1119L12.0675 52.9965V54.3601Z" fill="#4284AE"/>
<path d="M19.2865 57.1057L32.201 49.5535L25.0011 45.4565L12.0804 53.0026L19.2865 57.1057Z" fill="#86D3DD"/>
<path d="M17.4754 56.1556V56.6677L18.9854 58.3213L30.396 88.3019L31.329 88.8449L19.2923 57.2107L17.4754 56.1556Z" fill="#4284AE"/>
<path d="M32.0595 88.3328L31.1756 88.8449L19.2923 57.112L20.1823 56.5999L32.0595 88.3328Z" fill="#79BBE4"/>
<path d="M1.81727 70.6862L0.927246 71.1983L12.3441 54.4588L13.2279 53.9405L1.81727 70.6862Z" fill="#79BBE4"/>
<path d="M13.8536 54.0517V54.5576L12.3437 54.4589L0.932987 71.1984L0 70.6616L12.0368 52.9966L13.8536 54.0517Z" fill="#4284AE"/>
<path d="M26.3996 45.6603C26.9152 46.302 27.3879 46.8943 28.2288 47.1288C29.0697 47.3633 30.3035 48.0543 30.5122 48.9675C30.7209 49.8807 30.4508 50.2817 29.3275 50.5162C27.7316 50.8494 26.504 49.1094 25.4605 48.5664C24.4171 48.0235 22.993 47.8754 22.6677 47.0918C22.3485 46.3082 23.0421 45.9626 23.1096 45.3271C23.7787 45.5492 24.8958 45.9811 25.4605 45.9997C26.0314 46.0243 26.0068 45.8207 26.3996 45.6603Z" fill="#0F6399"/>
<path d="M26.4126 45.4073C26.916 46.0243 27.4254 46.5673 28.2479 46.7894C29.0704 47.0116 30.3226 47.715 30.519 48.6281C30.7154 49.5413 30.4576 49.9485 29.3344 50.1768C27.7385 50.5039 26.517 48.7392 25.4858 48.2147C24.4546 47.6903 22.9937 47.5669 22.6807 46.8079C22.3677 46.049 23.0551 45.722 23.1226 45.105C23.7917 45.3271 24.9088 45.7158 25.4735 45.7405C26.0444 45.7652 26.0198 45.5678 26.4126 45.4073Z" fill="#FFAC33"/>
<path d="M26.4059 45.4072C26.768 45.7281 27.302 46.3389 27.6519 46.5734C28.0018 46.8078 28.8856 47.2891 28.1429 47.5853C27.4002 47.8815 26.0867 46.6783 25.7614 45.9749C25.5711 45.5553 26.1297 45.4813 26.4059 45.4072Z" fill="#F17308"/>
<path d="M27.7076 23.9601C27.9592 26.1752 28.6528 26.206 28.702 28.8715C28.7511 31.537 27.505 37.6516 27.2902 39.879C27.0692 42.1064 26.7807 41.0267 26.8176 41.9769C26.8544 42.9271 27.0201 42.89 26.7807 43.4145C26.5414 43.939 26.615 43.8526 26.5659 44.3338C26.5107 44.8089 27.0447 45.1668 26.6457 45.6974C26.2467 46.2281 24.9025 46.1849 24.3071 45.9998C23.7117 45.8147 22.9015 45.6172 22.6928 45.1298C22.4902 44.6362 22.4104 43.8402 22.6928 43.5009C22.9751 43.1677 22.079 43.649 22.1035 42.9271C22.1281 42.2113 22.1772 41.619 22.2386 40.9588C22.3061 40.2986 22.656 39.7433 22.748 39.0954C22.5577 38.6141 22.3552 38.1946 22.214 37.6269C22.5946 35.3008 23.1224 31.753 23.3434 29.7168C23.5582 27.6807 23.4478 27.5943 23.6319 25.8975C24.7061 25.9777 26.4738 25.4039 27.1429 24.8363C27.8119 24.2686 27.505 24.6573 27.7076 23.9601Z" fill="#0A387E"/>
<path d="M17.6596 51.2132C18.3102 52.2374 19.6115 53.1383 20.4217 53.8725C21.2319 54.6068 21.4467 54.9708 20.882 55.995C20.3173 57.0193 17.9787 56.4763 17.144 55.9704C16.3092 55.4644 14.4862 53.0025 14.3327 52.7249C13.633 51.46 14.1547 51.9598 14.3082 51.1083C14.8974 51.2749 15.413 51.4662 15.9961 51.5402C16.5854 51.6143 17.0887 51.3489 17.6596 51.2132Z" fill="#0F6399"/>
<path d="M17.7029 50.8369C18.1694 51.8549 19.2558 52.8422 19.9985 53.5209C20.7412 54.1934 21.4717 54.5204 20.8701 55.5755C20.2747 56.6306 18.0405 56.1802 17.1136 55.5262C16.1868 54.8721 14.6032 52.8915 14.3269 52.1326C13.8359 50.7875 14.5356 50.9849 14.6523 49.9607C15.1003 50.4111 15.4379 50.9726 16.0395 51.133C16.641 51.2935 17.1198 50.9294 17.7029 50.8369Z" fill="#FFAC33"/>
<path d="M17.4202 50.7382C17.8376 51.4662 18.6908 52.4658 18.924 53.2247C19.1572 53.9836 18.0647 53.743 17.6473 53.3049C17.2299 52.8668 16.6406 51.6513 16.6284 50.8862C16.8248 50.7135 17.2053 50.3618 17.4202 50.7382Z" fill="#F17308"/>
<path d="M24.3811 24.5462C24.51 27.4585 23.5586 33.4929 22.4537 35.6771C21.3489 37.8613 21.3918 38.2007 20.6921 39.5828C19.9923 40.9649 19.2005 40.7613 18.9673 42.0817C18.734 43.4083 18.2982 44.2104 18.1264 45.648C17.9545 47.0857 18.5131 49.6277 17.8317 50.9543C17.1504 52.2809 15.7387 51.5466 14.8977 51.0962C14.0568 50.6458 13.8543 50.0288 13.842 49.1156C13.8297 48.2086 14.689 48.4678 14.2962 47.1782C13.9034 45.8825 13.9586 42.6123 14.3821 41.3474C14.8057 40.0826 15.3458 39.7371 15.6957 38.8054C16.0456 37.8737 16.0824 37.7873 16.2972 36.7877C16.5121 35.7882 16.2297 36.5039 16.1683 34.6529C16.1069 32.8018 15.6957 27.3475 16.2174 25.4532C16.7392 23.559 17.8624 24.719 18.2982 23.3307C19.4522 23.8182 19.4154 23.7194 20.6123 24.1082C21.8031 24.503 23.1964 24.2007 24.3811 24.5462Z" fill="#12398B"/>
<path d="M23.7794 6.99239C25.0622 7.08494 25.2893 6.41857 26.0873 7.91791C26.8852 9.41724 28.4873 13.1502 28.2847 15.0506C28.0821 16.951 27.7507 19.1907 27.8305 20.5666C27.9103 21.9487 27.8121 21.1837 27.9594 22.4547C28.1067 23.7196 26.7625 25.7002 25.3384 26.2925C23.9205 26.8787 21.4837 26.2123 20.2561 25.8791C19.0285 25.5459 18.7032 25.3608 18.0525 24.5402C17.5308 23.8985 16.7758 23.1149 17.2484 22.1832C17.7211 21.2515 17.9175 20.8937 17.5369 19.746C17.1564 18.5984 16.8863 17.642 16.6101 16.2599C16.3339 14.8778 15.8797 12.4529 16.6469 11.0647C17.4142 9.67639 19.3477 8.99151 20.0474 7.58472C21.5021 7.64025 22.4965 6.89984 23.7794 6.99239Z" fill="#1B3BA1"/>
<path d="M24.0247 12.1562C24.7674 13.7111 24.8227 13.0941 25.4733 15.2351C26.124 17.3761 26.0258 21.7939 25.9951 24.4532C25.8048 24.7741 25.5593 24.8852 25.3322 25.0764C25.3506 21.7199 25.6022 17.9499 24.6385 14.8525C24.2334 13.563 24.0554 13.4951 23.6196 12.4215C23.7547 12.3598 23.9081 12.329 24.0247 12.1562Z" fill="#1B3BA1"/>
<path d="M23.9387 12.1749C24.6876 13.7483 24.7305 13.0881 25.3934 15.2662C26.0563 17.4442 25.9581 21.825 25.9029 24.5028C25.7126 24.8237 25.4671 24.9286 25.24 25.1199C25.2584 21.7695 25.5162 17.9687 24.5464 14.8775C24.1474 13.5879 23.9633 13.52 23.5275 12.4464C23.6686 12.3786 23.8221 12.3477 23.9387 12.1749Z" fill="#12398B"/>
<path d="M26.4924 17.3331C26.8975 17.1789 27.1737 17.2344 27.6586 16.9753C27.6648 16.9753 28.34 16.2225 28.3952 15.8832C28.5486 14.9885 28.3584 13.6249 27.9348 12.7426C27.4499 13.4398 26.787 13.8964 26.075 14.3468C26.1303 15.3464 26.3328 16.3336 26.4924 17.3331Z" fill="#12398B"/>
<path d="M21.6552 20.4553C22.1646 20.4121 22.5206 20.5602 23.1283 20.3874C23.1344 20.3874 23.8894 19.5668 23.9938 19.2151C24.2577 18.2958 24.1656 16.9507 23.7053 16.0252C23.0669 16.8581 22.1953 17.2962 21.2194 17.6541C21.3667 18.6043 21.3421 19.5421 21.6552 20.4553Z" fill="#12398B"/>
<path d="M23.7482 7.91176C23.1712 7.54772 20.7528 7.83772 20.7528 7.83772C20.7528 7.83772 19.4884 7.99814 19.5927 8.63983C19.6971 9.28152 22.0295 11.9717 22.2075 12.0581C22.3856 12.1383 24.6628 12.7861 24.6628 12.7861C24.6628 12.7861 24.7917 8.57196 23.7482 7.91176Z" fill="#0F6399"/>
<path d="M21.6734 7.0602C22.4468 7.39956 23.2141 7.89934 23.6192 8.74464C24.0243 9.58995 24.7609 11.3916 24.454 12.348C22.9624 12.6997 21.8269 11.1448 21.0719 10.3982C20.3169 9.65782 19.967 8.794 19.9302 8.25103C19.8873 7.70189 20.0653 7.46126 19.5803 7.51062C19.0954 7.55998 18.5983 8.87421 18.8008 9.51591C19.0034 10.1576 19.5865 11.1633 19.967 11.805C20.3231 11.694 20.6913 11.552 21.0596 11.4842C21.3911 11.9839 21.7225 12.4776 22.0724 12.965C23.165 12.965 23.6376 13.1748 24.6749 12.7799C25.1414 11.8112 25.1107 10.898 25.5036 9.89228C25.2581 9.68867 24.9757 9.54675 24.7425 9.35548C24.853 9.05932 25.031 8.84336 24.988 8.4238C24.945 8.00423 23.7235 7.52296 23.3123 7.10339C22.8888 6.68999 22.2872 7.07254 21.6734 7.0602Z" fill="#12398B"/>
<path d="M23.7482 6.82581V9.6764C23.7482 9.6764 23.2265 10.3736 22.4347 10.4723C21.6674 10.5649 20.538 9.85534 20.2557 9.1396C19.9733 8.42387 19.9242 8.2511 19.9242 8.2511C19.9242 8.2511 19.8812 7.62792 19.9242 6.98623C19.9672 6.34454 19.5866 5.60413 19.5866 5.60413L23.7482 6.82581Z" fill="#EFC9A3"/>
<path d="M23.7912 1.62436C23.8832 1.69223 24.718 2.24754 24.7364 2.65477C24.7549 3.062 24.804 3.03115 24.7303 3.22859C24.6505 3.42604 25.2213 3.8888 25.4546 4.75878C25.6142 5.35111 25.5651 7.25151 25.4423 7.27002C25.3196 7.28853 25.295 7.51065 24.9697 7.56002C24.6444 7.61555 21.9927 7.60938 21.6122 7.32555C21.5017 7.24534 20.9615 6.7579 20.9615 6.7579C20.9615 6.7579 19.6664 7.1096 19.3288 6.06068C19.1938 5.64111 19.6725 5.76451 19.6725 5.76451C19.6725 5.76451 17.1989 3.11753 18.9237 1.43309C21.1457 -0.751132 22.5636 0.748207 23.7912 1.62436Z" fill="#FFDCB6"/>
<path d="M21.3669 3.62349C21.3669 3.62349 18.1567 3.94434 16.9966 6.88132C16.7204 7.58471 20.0595 5.49921 20.0595 5.49921C20.0595 5.49921 21.1091 4.68475 20.9863 4.51816C20.8636 4.35773 21.3669 3.62349 21.3669 3.62349Z" fill="#12398B"/>
<path d="M24.3499 1.7169C24.3499 1.7169 23.3924 0.0448011 21.6798 0.00161023C19.9673 -0.0415806 19.1755 0.766706 19.1755 0.766706C19.1755 0.766706 17.6533 2.04392 18.2609 4.04304C18.709 5.5177 19.1325 5.52387 19.6236 5.52387C20.3908 5.52387 20.8389 5.28323 22.1279 4.41941C24.3376 2.94476 24.3499 1.7169 24.3499 1.7169Z" fill="#1B3BA1"/>
<path d="M15.3946 24.4105L16.0207 29.143L17.4877 30.0685C17.4877 30.0685 18.0524 30.8583 18.1997 31.4444C18.4023 32.2651 18.3225 32.3885 18.3225 32.3885L17.4816 31.901C17.4816 31.901 17.1194 31.5493 16.9967 31.6172C16.7511 31.7529 16.9721 32.7463 16.9721 32.7463L17.6166 33.2584L16.7757 34.0359C16.7757 34.0359 14.8975 33.7891 14.8483 33.641C14.7992 33.4991 14.388 30.2536 14.345 30.0685C14.2959 29.8772 13.9522 29.4206 13.9583 29.0874C13.9645 28.7543 13.0253 25.336 12.9885 24.8239C12.9455 24.3118 12.9087 23.9786 13.056 23.9477C13.1972 23.9169 15.1614 23.6516 15.3946 24.4105Z" fill="#EFC9A3"/>
<path d="M19.0836 12.9155C19.0836 12.9155 18.8381 15.4761 18.2918 16.1856C17.7455 16.9014 15.4744 20.3196 15.6278 21.1464C15.7813 21.9732 16.1373 24.3981 15.8365 24.5647C15.5358 24.7313 14.4616 25.3729 13.8048 25.0829C13.1481 24.793 12.7921 24.5955 12.5711 24.4783C12.3501 24.3549 12.4422 20.6775 12.6938 20.2888C12.9455 19.9001 13.6084 16.6484 14.0197 15.7599C14.4309 14.8776 16.3276 11.0027 16.9905 10.7683C17.6473 10.5338 19.0345 10.8423 19.0836 12.9155Z" fill="#1B3BA1"/>
<path d="M27.7814 23.6022C27.7814 23.6022 27.1676 25.3977 24.5712 25.9777C21.9748 26.5515 19.6239 25.1817 19.004 24.8732C18.3902 24.5647 17.2178 23.3369 17.2178 23.3369L16.9293 24.3488C16.9293 24.3488 19.2372 27.4338 23.896 26.9896C26.9896 26.6934 27.8305 24.7622 27.8305 24.7622L27.7814 23.6022Z" fill="#0A387E"/>
<path d="M25.6271 25.7246L25.6823 26.5761C25.6885 26.7118 25.6087 26.8352 25.4736 26.8723C25.1851 26.9586 24.7002 27.0944 24.5897 27.0821C24.4363 27.0635 24.5222 26.9586 24.5222 26.9586L25.1851 26.755C25.3079 26.718 25.3938 26.6008 25.3877 26.4712L25.3754 26.0516C25.3693 25.9159 25.2465 25.8172 25.1115 25.848C24.8353 25.9097 24.4486 26.0023 24.467 26.0023C24.4977 25.9961 24.3135 25.7678 24.6143 25.6753C24.8046 25.6136 25.1422 25.5642 25.3693 25.5272C25.5104 25.5025 25.6209 25.595 25.6271 25.7246Z" fill="#79BBE4"/>
<path d="M25.7869 26.0085L25.0933 26.3047L25.0994 26.4096L25.7869 26.1257V26.0085Z" fill="#90C4E4"/>
<path d="M64.2043 28.2052C64.2043 28.2052 62.412 27.7548 62.0314 29.2048C61.6447 30.6486 62.0498 32.7588 62.2033 32.8575C62.3567 32.9562 64.3209 30.9448 64.5358 30.4203C64.7506 29.8897 64.2043 28.2052 64.2043 28.2052Z" fill="#12398B"/>
<path d="M60.7914 37.4665C60.7914 37.4665 58.5203 38.608 57.6487 38.8055C56.7832 38.9967 55.6293 38.9042 55.6293 38.9042L54.5306 38.682C54.5306 38.682 53.659 38.7438 53.3582 38.8672C53.0636 38.9906 53.2661 39.1016 53.573 39.2559C53.8799 39.4163 54.463 39.2127 54.463 39.2127L54.641 39.5088C54.641 39.5088 53.5116 39.7001 53.4932 39.7001C53.4748 39.7001 52.4866 39.8482 52.462 39.8605C52.4375 39.8729 51.9096 40.459 51.9096 40.459C51.9096 40.459 51.8237 40.9033 51.8114 40.965C51.7991 41.0267 51.8851 41.1624 52.0508 41.0822C52.2165 41.0082 52.3024 40.6318 52.3024 40.6318L52.7198 40.4097L53.3029 40.4529L52.3945 40.9033C52.3945 40.9033 52.1429 41.582 52.1735 41.7424C52.2042 41.9028 52.3884 41.9152 52.4498 42.125C52.5173 42.3409 52.5173 42.4088 52.683 42.3286C52.8426 42.2545 52.8303 42.0201 52.8303 42.0201C52.8303 42.0201 52.9101 42.5075 52.9531 42.5075C52.996 42.5137 53.1127 42.5507 53.1802 42.4335C53.2109 42.3841 53.2293 42.2854 53.2477 42.199C53.2661 42.088 53.2845 41.9831 53.3029 41.9769C53.3336 41.9645 53.6896 41.7609 53.7265 41.7609C53.7633 41.7671 53.9659 41.8103 53.9659 41.8103L53.4871 41.9707C53.4871 41.9707 53.3275 42.1497 53.3214 42.1928C53.3152 42.2299 53.0881 42.6186 53.0513 42.7296C53.0145 42.8407 52.9654 42.9579 53.1556 42.9086C53.3459 42.8592 53.5362 42.5137 53.5669 42.5137C53.5976 42.5137 54.1684 42.125 54.193 42.125C54.2237 42.125 54.6349 42.1435 55.2119 41.9954C55.7889 41.8473 56.8692 40.8909 56.8937 40.8539C56.9121 40.8169 58.2257 40.422 58.8947 40.4159C59.5638 40.4097 61.2579 40.2307 62.1663 39.6939C63.0625 39.1757 62.2338 36.9914 60.7914 37.4665Z" fill="#FFDCB6"/>
<path d="M61.6198 65.3862C61.6198 65.3862 59.1216 67.6012 58.3297 67.9159C57.5379 68.2306 57.1328 69.298 57.2556 69.9274C57.3783 70.5567 58.164 70.9763 59.2198 70.6987C60.2755 70.421 61.4663 69.8163 61.81 69.3412C62.1538 68.8661 63.5839 68.4342 64.0688 68.138C64.5538 67.8419 64.5231 67.2496 64.4862 66.4289C64.4494 65.6083 64.0688 65.2628 64.0688 65.2628L61.6198 65.3862Z" fill="#5AA3AF"/>
<path d="M66.9112 71.6983C66.9112 71.6983 65.8984 74.2096 65.5915 74.4996C65.2907 74.7896 64.5603 76.69 64.9838 76.9429C65.4012 77.1959 67.3715 77.7882 68.2247 76.6036C69.084 75.4251 69.0165 74.0121 69.0165 74.0121C69.0165 74.0121 69.4339 72.303 69.4278 72.1673C69.4216 72.0315 69.0104 70.9579 69.0104 70.9579L66.9112 71.6983Z" fill="#5AA3AF"/>
<path d="M61.6016 64.9296C61.6016 64.9296 59.1034 67.1447 58.3116 67.4594C57.5197 67.774 57.1146 68.8415 57.2374 69.4708C57.3602 70.1002 58.1458 70.5197 59.2016 70.2421C60.2573 69.9644 61.4481 69.3597 61.7919 68.8846C62.1356 68.4096 63.5658 67.9776 64.0507 67.6815C64.5356 67.3853 64.5049 66.793 64.4681 65.9724C64.4312 65.1517 64.0507 64.8062 64.0507 64.8062L61.6016 64.9296Z" fill="#FD8C02"/>
<path d="M66.8865 71.2418C66.8865 71.2418 65.8737 73.753 65.5668 74.043C65.2661 74.333 64.5356 76.2334 64.9592 76.4863C65.3765 76.7393 67.3469 77.3316 68.2 76.147C69.0594 74.9685 68.9919 73.5555 68.9919 73.5555C68.9919 73.5555 69.4092 71.8464 69.4031 71.7107C69.397 71.5749 68.9857 70.5013 68.9857 70.5013L66.8865 71.2418Z" fill="#FD8C02"/>
<path d="M61.853 40.7181C61.853 40.7181 61.0489 41.1315 60.5027 42.4272C59.9564 43.7229 59.7047 48.2148 59.674 49.4426C59.6433 50.6705 61.0428 56.0693 60.8341 57.3095C60.6193 58.5497 60.7482 65.67 60.7482 65.67C60.7482 65.67 62.4546 66.5647 63.6945 66.0156C64.9405 65.4664 64.474 65.2505 64.8546 63.7696C65.2351 62.295 65.806 59.0372 65.6832 58.3523C65.5604 57.6736 65.0141 55.7608 65.0141 55.7608C65.0141 55.7608 64.9343 53.0953 65.7568 50.8679C66.5794 48.6405 64.7809 42.8715 64.5845 42.7295C64.3881 42.6 61.853 40.7181 61.853 40.7181Z" fill="#0A387E"/>
<path d="M65.3764 42.8097L63.9646 44.1548C63.9646 44.1548 65.6403 51.7317 65.9226 54.3232C66.205 56.9146 65.8122 58.8952 66.1436 60.2465C66.4751 61.5977 67.5431 64.5532 66.6776 67.0583C65.8122 69.5634 66.3093 72.161 66.7145 72.1733C67.1196 72.1857 69.7467 71.9759 69.894 71.3959C70.0413 70.8159 71.9502 64.1583 71.5144 62.6281C71.0786 61.098 70.385 59.8331 70.293 58.8274C70.2009 57.8155 72.2387 53.0213 72.1098 50.3805C71.9871 47.7458 72.0178 45.6295 71.183 44.2165C70.3482 42.8036 69.3354 42.5074 69.3354 42.5074L65.3764 42.8097Z" fill="#12398B"/>
<path d="M64.204 28.2052C64.204 28.2052 62.78 28.7913 62.424 29.8896C62.068 30.9941 60.3554 35.2206 60.2081 36.3189C60.0608 37.4233 62.1171 40.4096 62.1171 40.4096C62.1171 40.4096 61.626 41.7794 63.3754 42.6926C64.2899 43.1677 67.7211 43.0936 68.5682 42.5445C69.4152 41.9892 69.2863 41.5635 69.2863 41.5635C69.2863 41.5635 70.6674 37.849 71.4224 35.7018C72.1712 33.5608 73.1226 31.5555 71.7047 30.3894C70.2868 29.2294 69.3047 27.7794 67.5063 27.8411C65.7017 27.9028 64.6766 27.9584 64.204 28.2052Z" fill="#304DC4"/>
<path d="M62.1174 40.4158L61.8657 41.039C61.8657 41.039 61.2396 43.7045 64.634 43.723C68.0283 43.7477 69.3296 42.5075 69.3296 42.5075L69.3358 41.3228C69.3358 41.3228 69.0841 42.5198 65.1128 42.6124C63.6212 42.6494 63.0381 42.2545 62.4795 41.8288C61.921 41.4092 62.1174 40.4158 62.1174 40.4158Z" fill="#7C074B"/>
<path d="M65.3704 28.2792C65.3704 28.2792 64.4251 28.5569 64.2717 30.0562C64.198 30.7534 64.1489 33.7583 64.1489 33.7583C64.1489 33.7583 67.4205 31.2162 67.9054 30.8028C68.82 30.0315 68.8139 28.3718 68.6174 28.0571C68.4272 27.7486 65.3704 28.2792 65.3704 28.2792Z" fill="#FAC244"/>
<path d="M70.158 31.3459C70.0967 31.5187 69.4644 35.8501 70.2194 37.442C70.9744 39.0401 71.9074 40.5456 71.9074 40.5456C71.9074 40.5456 74.1355 40.6813 74.7739 39.799C75.4122 38.9167 73.9146 33.1599 73.178 31.9629C72.4414 30.7659 70.913 29.137 70.158 31.3459Z" fill="#12398B"/>
<path d="M72.5703 40.8602C72.5703 40.8602 72.7483 47.2216 72.8956 47.6165C73.0368 48.0175 72.6931 49.3996 72.6931 49.3996L71.5452 50.356L71.0481 51.9479C71.0481 51.9479 70.7903 53.1449 71.1033 53.1079C71.4163 53.0647 71.6128 51.9232 71.6128 51.9232L72.1713 51.5654L72.5764 52.6575L72.2634 53.4843C72.2634 53.4843 71.9626 53.7496 71.9074 54.0581C71.8521 54.3666 71.9688 54.2123 72.1222 54.1938C72.2757 54.1753 72.6562 53.8483 72.6562 53.8483L72.9815 53.2745L73.27 52.7007L73.2332 53.3609L73.0736 53.8113C73.0736 53.8113 72.7913 54.0149 72.7974 54.2C72.8035 54.3851 73.3376 54.1753 73.3376 54.1753L73.8716 53.4658L73.8593 53.2498C73.8593 53.2498 74.2583 53.0955 74.3381 52.8734C74.4178 52.6513 74.3503 52.3798 74.381 52.3551C74.4117 52.3305 74.7125 52.133 74.7677 51.9232C74.823 51.7134 74.3258 49.8377 74.3319 49.6218C74.3319 49.4058 74.6695 49.196 74.6388 48.9924C74.6081 48.7888 74.7616 47.4807 74.8966 46.691C75.0317 45.9012 75.4122 43.0383 75.2219 42.0942C75.0317 41.1502 75.0378 40.3481 74.7923 40.2309C74.5529 40.1136 72.5703 40.8602 72.5703 40.8602Z" fill="#FFDCB6"/>
<path d="M72.147 41.6437C72.147 41.6437 71.2447 40.4097 71.6314 40.1135C72.0181 39.8174 72.4539 40.4961 73.6201 40.1506C74.7802 39.805 74.9337 38.8302 74.9337 38.8302C74.9337 38.8302 75.3326 39.0338 75.3265 39.7742C75.3142 40.5208 75.0196 41.761 74.1418 41.8288C73.258 41.8967 72.6257 41.8905 72.147 41.6437Z" fill="#304DC4"/>
<path d="M64.1489 33.7584C64.1489 33.7584 67.5126 32.6663 68.0466 32.4503C68.5806 32.2344 68.2492 31.5803 68.2492 31.5803C68.2492 31.5803 69.2374 31.7161 69.6609 31.1793C70.0783 30.6425 70.6062 29.2974 69.9249 28.81C69.2435 28.3225 68.2799 27.2366 68.4701 27.5698C68.8139 28.1744 68.7525 29.4578 68.4517 30.0687C68.1448 30.6733 64.1489 33.7584 64.1489 33.7584Z" fill="#12398B"/>
<path d="M65.2166 27.9952C65.2166 27.9952 64.259 27.7669 63.2585 29.3588C63.0928 29.618 63.6084 29.8586 63.6084 29.8586L63.0867 30.7841L64.1486 33.7581C64.1486 33.7581 64.2222 29.5316 64.5905 28.9948C64.9526 28.4518 65.2166 27.9952 65.2166 27.9952Z" fill="#12398B"/>
<path d="M64.9896 26.9339C64.9896 26.9339 65.1614 28.8405 64.965 29.2601C64.7686 29.6797 65.6402 30.852 67.2238 30.1671C67.7394 29.945 68.6724 28.7233 68.6478 28.242C68.6233 27.7607 68.1875 27.0944 68.1998 26.502C68.2182 25.9097 68.1936 25.4099 68.1936 25.4099L64.9896 26.9339Z" fill="#E2B791"/>
<path d="M64.609 22.0721C64.609 22.0721 63.5471 23.5838 63.7128 24.3057C63.8724 25.0276 63.9399 26.4344 63.9522 26.7059C63.9645 26.9835 64.2161 28.0078 65.4376 27.6561C66.6591 27.3044 67.9358 26.3727 68.212 26.0457C68.4882 25.7186 68.6847 25.3854 68.6847 25.3854C68.6847 25.3854 69.0407 25.8667 69.6054 25.3423C70.1701 24.8116 70.5138 23.5036 70.1087 23.5221C69.7036 23.5406 69.5072 23.6702 69.5072 23.6702C69.5072 23.6702 68.6049 21.4242 68.3348 21.4366C68.0524 21.4489 65.634 20.3877 64.609 22.0721Z" fill="#FFDCB6"/>
<path d="M65.2722 21.1713C65.2722 21.1713 67.6967 22.3622 67.9913 23.4419C68.1448 24.0034 68.065 25.0153 68.065 25.0153L69.4951 23.6702C69.4951 23.6702 69.9739 23.0347 69.3356 22.2696C68.7095 21.5107 65.2722 21.1713 65.2722 21.1713Z" fill="#01284F"/>
<path d="M68.6789 25.3853L68.2062 26.0455C68.2062 26.0455 68.1633 26.8229 68.2124 27.0327C68.2615 27.2425 68.3045 27.4769 68.464 27.5633C68.6236 27.6435 69.6303 28.5752 69.6303 28.5752C69.6303 28.5752 69.6671 27.4646 69.4584 26.7797C69.2743 26.175 68.6789 25.3853 68.6789 25.3853Z" fill="#01284F"/>
<path d="M67.2364 18.8266C67.2364 18.8266 65.1372 18.8698 64.7198 19.8385C64.3024 20.8072 64.241 21.6772 64.241 21.6772C64.241 21.6772 67.9607 22.9359 68.4026 22.9976C68.8384 23.0593 69.5014 23.664 69.5014 23.664C69.5014 23.664 71.042 21.344 69.4216 19.6102C68.4886 18.623 67.2364 18.8266 67.2364 18.8266Z" fill="#FD8C02"/>
<path d="M64.2411 21.6834C64.2411 21.6834 62.5776 22.6274 62.9521 22.8372C63.3265 23.047 63.9955 22.6953 64.9838 23.01C65.972 23.3246 65.9045 23.7997 66.6656 23.6887C67.4329 23.5776 69.1515 23.4048 69.1515 23.4048C69.1515 23.4048 67.574 21.523 64.2411 21.6834Z" fill="#FAC244"/>
<path d="M63.9838 33.7645C63.9838 33.7645 61.9889 36.6151 61.9521 37.917C61.9153 39.2189 62.2774 40.5269 62.6273 40.8046C62.9772 41.0822 62.8606 42.1744 62.8606 42.1744L63.2288 42.2546C63.2288 42.2546 63.2043 41.0329 63.0324 40.7861C62.8606 40.5393 61.9705 39.0523 62.2161 37.9663C62.4616 36.8866 64.3705 33.746 64.3705 33.746L63.9838 33.7645Z" fill="#01284F"/>
<path d="M61.068 33.5796C61.068 33.5796 61.3196 34.2151 61.7738 34.4496C62.2219 34.6902 62.5104 34.6717 62.5104 34.6717C62.5104 34.6717 61.7677 36.6893 61.6143 37.1829C61.4608 37.6765 60.9145 38.0282 60.9145 38.0282C60.9145 38.0282 59.9263 37.3989 60.2086 36.3191C60.491 35.2455 61.068 33.5796 61.068 33.5796Z" fill="#01284F"/>
<path d="M64.1554 35.6527C64.1554 35.6527 64.2597 36.1586 65.6162 36.4116L66.8193 36.5288L65.9968 38.7933L64.4132 39.3424L63.4495 38.4292C63.4495 38.4292 63.2899 37.4297 63.5354 36.9299C63.7809 36.4301 64.1554 35.6527 64.1554 35.6527Z" fill="#01284F"/>
<path d="M63.8855 42.4891C63.8855 42.4891 64.0758 42.3595 63.7443 42.304C63.4067 42.2423 62.8666 41.8968 62.7561 42.1066C62.6395 42.3163 62.4492 43.1246 62.5965 43.285C62.75 43.4393 63.6032 43.791 63.6829 43.6861C63.7566 43.5874 63.9162 43.5565 63.6707 43.4825C63.4252 43.4146 62.7684 43.2665 62.7377 43.1555C62.707 43.0382 62.8359 42.2485 62.928 42.2731C63.02 42.2855 63.7382 42.4953 63.8855 42.4891Z" fill="#5AA3AF"/>
<path d="M62.3753 42.5939C62.3753 42.5939 62.8479 43.0073 62.94 42.9702C63.032 42.9332 62.9891 42.816 62.9891 42.816L62.3691 42.489L62.3753 42.5939Z" fill="#8FB8D1"/>
<path d="M54.5309 40.9157C54.4081 41.1316 54.1074 41.3106 53.8557 41.3106C53.604 41.3106 53.4997 41.1378 53.6225 40.9219C53.7452 40.7059 54.046 40.527 54.2976 40.527C54.5493 40.5208 54.6537 40.6997 54.5309 40.9157Z" fill="#0D4D6C"/>
<path d="M54.6414 41.0761C54.5186 41.2921 54.2178 41.471 53.9662 41.471C53.7145 41.471 53.6102 41.2983 53.7329 41.0823C53.8557 40.8663 54.1565 40.6874 54.4081 40.6874C54.6598 40.6812 54.7641 40.8602 54.6414 41.0761Z" fill="#0D4D6C"/>
<path d="M54.7516 41.2363C54.6289 41.4523 54.3281 41.6312 54.0765 41.6312C53.8248 41.6312 53.7205 41.4585 53.8432 41.2425C53.966 41.0266 54.2667 40.8476 54.5184 40.8476C54.7701 40.8414 54.8744 41.0142 54.7516 41.2363Z" fill="#0D4D6C"/>
<path d="M54.862 41.3908C54.7392 41.6068 54.4385 41.7857 54.1868 41.7857C53.9352 41.7857 53.8308 41.6129 53.9536 41.397C54.0763 41.181 54.3771 41.0021 54.6287 41.0021C54.8804 41.0021 54.9848 41.1749 54.862 41.3908Z" fill="#0D4D6C"/>
<path d="M54.4327 40.6504C54.3959 40.8108 53.8373 41.1933 53.4997 41.0453C53.1621 40.8972 53.1744 40.6751 53.0148 40.5393C52.8675 40.4097 52.223 40.1259 52.1371 40.0951C51.5601 39.8483 51.1672 39.2868 51.1672 38.6328C51.1672 37.7504 51.8731 37.0409 52.7509 37.0409C53.6225 37.0409 54.3283 37.7504 54.3283 38.6328C54.3283 38.75 54.3161 38.8611 54.2915 38.9659C54.2731 39.1264 54.181 39.7989 54.2608 39.9408C54.3468 40.1012 54.4757 40.4838 54.4327 40.6504Z" fill="url(#paint0_linear)"/>
<path d="M52.1614 37.7196C52.1614 37.7196 51.5906 37.8491 51.5108 38.5032C51.4248 39.1572 51.7379 39.3362 51.7379 39.3362C51.7379 39.3362 51.6458 38.6266 51.7379 38.4168C51.8238 38.207 52.1614 37.7196 52.1614 37.7196Z" fill="#F9EEED"/>
<defs>
<linearGradient id="paint0_linear" x1="51.8204" y1="37.9712" x2="53.9769" y2="39.4855" gradientUnits="userSpaceOnUse">
<stop stop-color="#5FADCD"/>
<stop offset="1" stop-color="#B6DAE8"/>
</linearGradient>
</defs>
</svg>
