<svg width="56" height="56" viewBox="0 0 56 56" fill="none" xmlns="http://www.w3.org/2000/svg">
<path fill-rule="evenodd" clip-rule="evenodd" d="M24.8557 17.9295C26.2804 16.0094 26.7914 13.9858 25.18 12.1996C21.5638 7.13965 19.1319 4.0106 17.6065 2.50372C14.7064 -0.361045 9.93581 0.0264598 7.42417 2.50127C6.07514 3.83052 5.61844 4.28699 4.23328 5.69392C-3.48226 13.4136 1.22307 29.7327 13.7316 42.2535C26.2372 54.7715 42.5548 59.4793 50.2865 51.7433C51.5647 50.5111 52.6469 49.4283 53.5005 48.5262C55.9618 45.9247 56.3355 41.3645 53.4843 38.4019C52.0225 36.883 49.0386 34.5685 43.7658 30.7968C42.1509 29.3528 40.2361 29.6657 38.4806 30.8175C37.6362 31.3715 37.0216 31.9319 35.8612 33.0934L33.7541 35.2017C33.4765 35.4794 29.7079 33.5921 26.0497 29.9303C22.3895 26.2665 20.5035 22.4977 20.7797 22.2214C21.3493 21.6518 22.0522 20.9486 22.8883 20.1117C23.2565 19.7431 23.4325 19.5647 23.6582 19.3275C24.1285 18.8332 24.5179 18.3847 24.8557 17.9295ZM37.641 39.0909L39.7486 36.9822C40.3872 36.3429 40.8011 35.9499 41.1378 35.6789C45.7569 38.9959 48.432 41.0817 49.5247 42.217C50.1807 42.8986 50.0788 44.1424 49.5085 44.7452C48.7192 45.5794 47.6939 46.6054 46.4356 47.819C41.4359 52.8208 28.264 49.0205 17.6194 38.3654C6.9714 27.707 3.17293 14.533 8.13479 9.56842C9.51437 8.16728 9.95146 7.73041 11.2812 6.42014C11.7798 5.92886 13.1379 5.81854 13.7445 6.41769C14.9189 7.57784 17.0974 10.3673 20.3022 14.8315C20.1363 15.0375 19.9291 15.2702 19.6769 15.5353C19.4918 15.7298 19.3376 15.8861 19.0005 16.2235C18.1651 17.0598 17.4629 17.7624 16.894 18.3312C13.3103 21.9146 16.3623 28.0133 22.1619 33.8186C27.9576 39.62 34.0586 42.6754 37.641 39.0909Z" fill="#F96754"/>
</svg>
