<svg xmlns="http://www.w3.org/2000/svg" viewBox="0 0 28 28" width="28" height="28">
	<style>
		tspan { white-space:pre }
		.shp0 { fill: #47c8f1 } 
		.shp1 { fill: #ffffff } 
	</style>
	<g id="Layer">
		<path id="Layer" class="shp0" d="M14 28C6.26 28 0 21.74 0 14C0 6.26 6.26 0 14 0C21.74 0 28 6.26 28 14C28 21.74 21.74 28 14 28Z" />
	</g>
	<path id="Layer" fill-rule="evenodd" class="shp1" d="M17.02 9C17.9 9 18.37 9.42 18.59 9.92L19.74 12.51C20.19 12.56 21 13.03 21 13.91L21 17.21L19.71 17.21L19.71 18.03C19.71 19.33 17.96 19.32 17.96 18.03L17.96 17.21L10.04 17.21L10.04 18.03C10.04 19.32 8.29 19.33 8.29 18.03L8.29 17.21L7 17.21L7 13.91C7 13.03 7.81 12.56 8.26 12.51L9.41 9.92C9.63 9.42 10.1 9 10.98 9L17.02 9ZM10.81 14.32C10.81 13.83 10.36 13.43 9.82 13.43C9.27 13.43 8.82 13.83 8.82 14.32C8.82 14.81 9.27 15.21 9.82 15.21C10.36 15.21 10.81 14.81 10.81 14.32ZM18.55 12.45L17.68 10.44C17.57 10.15 17.41 9.95 17.03 9.94L10.97 9.94C10.59 9.95 10.43 10.15 10.32 10.44L9.45 12.45L18.55 12.45ZM19.18 14.32C19.18 13.83 18.73 13.43 18.18 13.43C17.64 13.43 17.19 13.83 17.19 14.32C17.19 14.81 17.64 15.21 18.18 15.21C18.73 15.21 19.18 14.81 19.18 14.32Z" />
</svg>