<svg width="60" height="60" viewBox="0 0 60 60" fill="none" xmlns="http://www.w3.org/2000/svg">
<path fill-rule="evenodd" clip-rule="evenodd" d="M53.0667 3.7875C52.4 1.575 50.5333 0 48.3333 0H11.6667C9.46667 0 7.63333 1.575 6.93333 3.7875L0 26.25V56.25C0 58.3125 1.5 60 3.33333 60H6.66667C8.5 60 10 58.3125 10 56.25V52.5H50V56.25C50 58.3125 51.5 60 53.3333 60H56.6667C58.5 60 60 58.3125 60 56.25V26.25L53.0667 3.7875ZM12.8334 7.5H47.1334L50.7334 19.1625H9.2334L12.8334 7.5ZM6.66663 45H53.3333V26.25H6.66663V45ZM15 30C12.2386 30 10 32.5184 10 35.625C10 38.7316 12.2386 41.25 15 41.25C17.7614 41.25 20 38.7316 20 35.625C20 32.5184 17.7614 30 15 30ZM40 35.625C40 32.5184 42.2386 30 45 30C47.7614 30 50 32.5184 50 35.625C50 38.7316 47.7614 41.25 45 41.25C42.2386 41.25 40 38.7316 40 35.625Z" fill="#F96754"/>
</svg>
