<svg xmlns="http://www.w3.org/2000/svg" viewBox="0 0 32 32" width="32" height="32">
	<style>
		tspan { white-space:pre }
		.shp0 { fill: #f9c338 } 
		.shp1 { fill: #ffffff } 
	</style>
	<g id="Layer">
		<path id="Layer" class="shp0" d="M16 32C7.15 32 0 24.85 0 16C0 7.15 7.15 0 16 0C24.85 0 32 7.15 32 16C32 24.85 24.85 32 16 32Z" />
	</g>
	<path id="Layer" class="shp1" d="M15.82 23.57C16.38 23 16.39 22.08 15.83 21.52C15.66 21.35 15.46 21.23 15.24 21.16L15.24 17.42C15.7 17.27 16.06 16.9 16.2 16.44L18.08 16.44L20.45 16.44L20.45 16.49L20.45 18.14C20.45 18.15 20.45 18.15 20.45 18.15C20.45 18.42 20.67 18.64 20.93 18.64C21.04 18.64 21.14 18.6 21.22 18.54L24.76 16.42C24.91 16.34 25 16.17 25 16C25 15.83 24.91 15.66 24.76 15.58L21.17 13.43C21.02 13.34 20.84 13.34 20.69 13.43C20.54 13.52 20.45 13.68 20.45 13.85L20.45 15.51L20.45 15.56L18.08 15.56L16.2 15.56C16.06 15.1 15.7 14.73 15.24 14.58L15.24 10.82C15.45 10.75 15.65 10.64 15.82 10.47C16.38 9.9 16.39 8.98 15.83 8.42C15.28 7.86 14.37 7.86 13.81 8.43C13.25 9 13.24 9.92 13.8 10.48C13.97 10.65 14.17 10.77 14.39 10.84L14.39 14.58C13.93 14.73 13.57 15.1 13.43 15.56L9.8 15.56C9.74 15.35 9.62 15.14 9.45 14.97C8.9 14.41 7.99 14.41 7.43 14.98C6.86 15.55 6.86 16.47 7.41 17.03C7.97 17.59 8.88 17.59 9.44 17.02C9.61 16.85 9.72 16.65 9.79 16.44L13.43 16.44C13.57 16.9 13.93 17.27 14.39 17.42L14.39 21.18C14.18 21.25 13.98 21.36 13.81 21.53C13.25 22.1 13.24 23.02 13.8 23.58C14.35 24.14 15.26 24.14 15.82 23.57Z" />
</svg>