<svg xmlns="http://www.w3.org/2000/svg" viewBox="0 0 32 32" width="32" height="32">
	<style>
		tspan { white-space:pre }
		.shp0 { fill: #ce4729 } 
		.shp1 { fill: #ffffff } 
	</style>
	<g id="Layer">
		<path id="Layer" class="shp0" d="M16 32C7.15 32 0 24.85 0 16C0 7.15 7.15 0 16 0C24.85 0 32 7.15 32 16C32 24.85 24.85 32 16 32Z" />
	</g>
	<path id="Layer" fill-rule="evenodd" class="shp1" d="M24.42 16.5C24.13 16.78 23.75 16.99 23.36 17.08L23.36 18.56C23.36 19.43 22.58 20.16 21.63 20.16L21.56 20.16L21.56 21.07C21.56 21.58 21.1 22 20.55 22L19 22C18.45 22 18 21.58 18 21.07L18 20.16L13.98 20.16L13.98 21.07C13.98 21.58 13.53 22 12.98 22L11.4 22C10.85 22 10.4 21.58 10.4 21.07L10.4 20.16L10.32 20.16C9.38 20.16 8.6 19.43 8.6 18.56L8.6 17.08C8.18 16.99 7.82 16.78 7.54 16.5C7.14 16.1 6.95 15.53 7.01 14.99C7.12 13.99 8.07 13.22 9.19 13.22L9.89 13.22L9.89 12.35C9.89 11.05 11.03 10 12.43 10L19.57 10C20.97 10 22.11 11.05 22.11 12.35L22.11 13.22L22.81 13.22C23.92 13.22 24.89 14.01 24.98 14.99C25.06 15.55 24.85 16.1 24.42 16.5ZM10.91 12.35L10.91 13.23C11.75 13.34 12.41 14.01 12.41 14.81L12.41 16.1L19.62 16.1L19.62 14.81C19.62 14.01 20.27 13.34 21.12 13.23L21.12 12.35C21.12 11.58 20.44 10.95 19.61 10.95L12.43 10.95C11.57 10.95 10.89 11.58 10.91 12.35ZM12.98 20.16L11.42 20.16L11.42 21.07L12.98 21.07L12.98 20.16ZM20.57 20.16L19.04 20.16L19.04 21.07L20.57 21.07L20.57 20.16ZM23.98 15.08C23.94 14.57 23.43 14.16 22.83 14.16L21.35 14.16C20.95 14.16 20.63 14.46 20.63 14.83L20.63 16.4C20.63 16.76 20.31 17.06 19.91 17.06L12.11 17.06C11.71 17.06 11.39 16.76 11.39 16.4L11.39 14.83C11.39 14.46 11.06 14.16 10.67 14.16L9.17 14.16C8.58 14.16 8.07 14.57 8.01 15.08C7.99 15.38 8.09 15.66 8.3 15.87C8.51 16.08 8.81 16.2 9.11 16.2C9.4 16.2 9.62 16.41 9.62 16.68L9.62 18.56C9.62 18.93 9.95 19.22 10.34 19.22L21.65 19.22C22.05 19.22 22.37 18.93 22.37 18.56L22.37 16.68C22.37 16.41 22.6 16.2 22.88 16.2C23.19 16.2 23.49 16.08 23.7 15.87C23.91 15.66 24.02 15.38 23.98 15.08Z" />
</svg>