<?xml version="1.0" encoding="utf-8"?>
<!-- Generator: Adobe Illustrator 21.0.0, SVG Export Plug-In . SVG Version: 6.00 Build 0)  -->
<svg version="1.1" id="Layer_1" xmlns="http://www.w3.org/2000/svg" xmlns:xlink="http://www.w3.org/1999/xlink" x="0px" y="0px"
	 viewBox="0 0 38 38" style="enable-background:new 0 0 38 38;" xml:space="preserve">
<style type="text/css">
	.st0{fill:#08B681;}
	.st1{fill:#FFFFFF;}
</style>
<g>
	<circle class="st0" cx="19" cy="19" r="18.7"/>
</g>
<path class="st1" d="M20,11.4c0-0.7-1.1-0.7-1.1,0l0,3.6c-2.2-3-4.4-1.2-4.4-1.2c-0.6,0.4,0.1,1.3,0.7,0.9c0,0,1.9-1.5,3.7,2.6l0,5
	c-1.2,0-4.7,0.3-4.4,1.8c0.5,1.9,0.8,3.9,1.2,5.7c0,0.2,0.1,0.3,0.3,0.4c2.3,1,4.3,0.8,6.7,0c0.2-0.1,0.3-0.2,0.4-0.4l1.3-5.9
	c0-1.3-3.2-1.6-4.4-1.6l0-5c1.3-3.6,2.2-1.9,2.2-1.9c0.4,0.6,1.3,0.1,1-0.5c0,0-1.4-2.6-3.1-0.1L20,11.4z M23,25l-0.9,4.2
	c-1.8,0.6-3.6,0.7-5.4,0L15.8,25C17.6,25.5,21.2,25.5,23,25z M19.4,24.3c-1.1,0-3-0.2-3.8-0.5c1.3-0.3,2-0.5,3.7-0.5v0
	c1.1,0,3,0.2,3.8,0.5C22.3,24.1,20.6,24.3,19.4,24.3z"/>
<path class="st1" d="M21.2,18.5c-0.6-0.4-1.8,0.7,0.4,1.4c3.3,1,6.2-2.7,4.4-5.6c-0.3-0.5-0.7-0.9-1.1-1.2c0.4-4.8-5.1-7.6-8.8-4.7
	C15.3,9,14.6,10,14.3,11c-3.7,0.8-5.1,5.4-2.4,8.1c1.7,1.7,4.4,1.9,6.4,0.4c0.6-0.4-0.1-1.3-0.7-0.9c-2.4,1.8-6,0.1-6-3
	c0-1.9,1.4-3.4,3.2-3.7c0.8-0.1,0.2-1.4,2-2.9c2.9-2.4,7.3-0.1,7,3.7c0,0.3-0.1,0.7,0.2,0.9c2.5,1.4,1.5,5.1-1.3,5.1
	C22.2,18.9,21.7,18.7,21.2,18.5z"/>
</svg>
