<?xml version="1.0" encoding="utf-8"?>
<!-- Generator: Adobe Illustrator 21.0.0, SVG Export Plug-In . SVG Version: 6.00 Build 0)  -->
<svg version="1.1" id="Layer_1" xmlns="http://www.w3.org/2000/svg" xmlns:xlink="http://www.w3.org/1999/xlink" x="0px" y="0px"
	 viewBox="0 0 38 38" style="enable-background:new 0 0 38 38;" xml:space="preserve">
<style type="text/css">
	.st0{fill:#FF6682;}
	.st1{fill:#FFFFFF;}
</style>
<g>
	<ellipse class="st0" cx="18.8" cy="19.1" rx="18.3" ry="18.5"/>
</g>
<path class="st1" d="M17.9,14.4c-1.5,0-2.7-1.2-2.7-2.7c0-1.5,1.2-2.7,2.7-2.7c1.5,0,2.7,1.2,2.7,2.7C20.6,13.2,19.4,14.4,17.9,14.4
	z M17.9,13.2c0.8,0,1.5-0.7,1.5-1.5c0-0.8-0.7-1.5-1.5-1.5c-0.8,0-1.5,0.7-1.5,1.5C16.4,12.5,17.1,13.2,17.9,13.2z M22.2,21.2
	l-2.9,1.2c-0.3,0.1-0.7-0.1-0.8-0.4l-1.4-5.2h-1.5l-2.3,6.8c-0.2,0.6,0.1,1.3,0.7,1.5c0.1,0,0.3,0.1,0.4,0.1h3.7
	c0.2,0,0.4,0.1,0.5,0.2l2.4,3c0.2,0.3,0.2,0.6-0.1,0.8c-0.3,0.2-0.6,0.2-0.8-0.1l-2.2-2.8h-3.5c-0.3,0-0.5,0-0.8-0.1
	c-1.2-0.4-1.9-1.8-1.5-3l2.3-6.8c0.2-0.5,0.6-0.8,1.1-0.8h1.5c0.5,0,1,0.4,1.1,0.9l1.2,4.6l2.3-0.9c0-0.1,0-0.2,0-0.4
	c0-1.5,1.2-2.7,2.7-2.7s2.7,1.2,2.7,2.7c0,1.5-1.2,2.7-2.7,2.7C23.5,22.4,22.7,21.9,22.2,21.2z M24.4,21.2c0.8,0,1.5-0.7,1.5-1.5
	s-0.7-1.5-1.5-1.5c-0.8,0-1.5,0.7-1.5,1.5S23.6,21.2,24.4,21.2z M11.1,29.2c-0.3,0-0.6-0.3-0.6-0.6c0-0.3,0.3-0.6,0.6-0.6h6.2
	c0.3,0,0.6,0.3,0.6,0.6c0,0.3-0.3,0.6-0.6,0.6H11.1z"/>
</svg>
