<svg xmlns="http://www.w3.org/2000/svg" viewBox="0 0 28 28" width="28" height="28">
	<style>
		tspan { white-space:pre }
		.shp0 { fill: #85bb5a } 
		.shp1 { fill: #ffffff } 
	</style>
	<g id="Layer">
		<path id="Layer" class="shp0" d="M14 28C6.26 28 0 21.74 0 14C0 6.26 6.26 0 14 0C21.74 0 28 6.26 28 14C28 21.74 21.74 28 14 28Z" />
	</g>
	<path id="Layer" class="shp1" d="M11.75 12.41L13.04 14.41L13.94 13.38L12.59 11.79C13.17 10.95 13.02 9.56 12.16 8.42C11.16 7.07 9.54 6.55 8.56 7.28C7.59 8 7.62 9.69 8.62 11.04C9.5 12.19 10.79 12.72 11.75 12.41Z" />
	<path id="Layer" class="shp1" d="M15.58 15.32L14.61 16.84L16.97 20.5C17.31 21.03 18.04 21.16 18.56 20.78L18.65 20.71C19.15 20.32 19.24 19.59 18.82 19.11L15.58 15.32Z" />
	<path id="Layer" class="shp1" d="M20.71 8.52C20.57 8.36 20.32 8.37 20.2 8.53C20.2 8.53 18.51 10.7 18.04 11.3C17.97 11.39 17.83 11.41 17.74 11.35C17.66 11.27 17.63 11.16 17.7 11.05L19.73 8.19C19.82 8.08 19.82 7.9 19.71 7.78C19.58 7.62 19.33 7.63 19.21 7.79C19.21 7.79 17.52 9.96 17.05 10.56C16.97 10.65 16.84 10.67 16.75 10.61C16.66 10.53 16.63 10.42 16.71 10.31C17.17 9.67 18.75 7.44 18.75 7.44C18.87 7.28 18.81 7.04 18.62 6.95C18.48 6.89 18.32 6.94 18.22 7.05L15.94 9.99L15.64 10.37C15.35 10.77 15.21 11.24 15.27 11.66L15.4 12.52L9.73 19.09C9.32 19.58 9.41 20.31 9.91 20.69L10 20.76C10.5 21.15 11.23 21.02 11.58 20.48L16.26 13.18L17.14 13.07C17.55 13.01 17.97 12.74 18.28 12.34L18.57 11.95L20.72 8.93C20.81 8.82 20.81 8.64 20.71 8.52Z" />
</svg>