<svg width="124" height="23" viewBox="0 0 124 23" fill="none" xmlns="http://www.w3.org/2000/svg">
<path d="M11.99 1.36C11.99 1.26 12.02 1.18 12.08 1.12C12.16 1.04 12.25 0.999999 12.35 0.999999H15.86C15.96 0.999999 16.04 1.04 16.1 1.12C16.18 1.18 16.22 1.26 16.22 1.36V21.64C16.22 21.74 16.18 21.83 16.1 21.91C16.04 21.97 15.96 22 15.86 22H12.35C12.25 22 12.16 21.97 12.08 21.91C12.02 21.83 11.99 21.74 11.99 21.64V13.36C11.99 13.26 11.94 13.21 11.84 13.21H5.21C5.11 13.21 5.06 13.26 5.06 13.36V21.64C5.06 21.74 5.02 21.83 4.94 21.91C4.88 21.97 4.8 22 4.7 22H1.19C1.09 22 1 21.97 0.92 21.91C0.86 21.83 0.83 21.74 0.83 21.64V1.36C0.83 1.26 0.86 1.18 0.92 1.12C1 1.04 1.09 0.999999 1.19 0.999999H4.7C4.8 0.999999 4.88 1.04 4.94 1.12C5.02 1.18 5.06 1.26 5.06 1.36V9.43C5.06 9.53 5.11 9.58 5.21 9.58H11.84C11.94 9.58 11.99 9.53 11.99 9.43V1.36ZM27.4979 6.94C27.4979 6.84 27.5279 6.76 27.5879 6.7C27.6679 6.62 27.7579 6.58 27.8579 6.58H31.3679C31.4679 6.58 31.5479 6.62 31.6079 6.7C31.6879 6.76 31.7279 6.84 31.7279 6.94V21.64C31.7279 21.74 31.6879 21.83 31.6079 21.91C31.5479 21.97 31.4679 22 31.3679 22H27.8579C27.7579 22 27.6679 21.97 27.5879 21.91C27.5279 21.83 27.4979 21.74 27.4979 21.64V20.62C27.4979 20.56 27.4779 20.53 27.4379 20.53C27.3979 20.51 27.3579 20.53 27.3179 20.59C26.5179 21.67 25.2779 22.21 23.5979 22.21C22.0779 22.21 20.8279 21.75 19.8479 20.83C18.8679 19.91 18.3779 18.62 18.3779 16.96V6.94C18.3779 6.84 18.4079 6.76 18.4679 6.7C18.5479 6.62 18.6379 6.58 18.7379 6.58H22.2179C22.3179 6.58 22.3979 6.62 22.4579 6.7C22.5379 6.76 22.5779 6.84 22.5779 6.94V15.91C22.5779 16.71 22.7879 17.36 23.2079 17.86C23.6479 18.36 24.2479 18.61 25.0079 18.61C25.6879 18.61 26.2479 18.41 26.6879 18.01C27.1279 17.59 27.3979 17.05 27.4979 16.39V6.94ZM42.7955 9.61C42.7955 9.71 42.7555 9.8 42.6755 9.88C42.6155 9.94 42.5355 9.97 42.4355 9.97H39.5555C39.4555 9.97 39.4055 10.02 39.4055 10.12V16.48C39.4055 17.14 39.5355 17.63 39.7955 17.95C40.0755 18.27 40.5155 18.43 41.1155 18.43H42.1055C42.2055 18.43 42.2855 18.47 42.3455 18.55C42.4255 18.61 42.4655 18.69 42.4655 18.79V21.64C42.4655 21.86 42.3455 21.99 42.1055 22.03C41.2655 22.07 40.6655 22.09 40.3055 22.09C38.6455 22.09 37.4055 21.82 36.5855 21.28C35.7655 20.72 35.3455 19.68 35.3255 18.16V10.12C35.3255 10.02 35.2755 9.97 35.1755 9.97H33.4655C33.3655 9.97 33.2755 9.94 33.1955 9.88C33.1355 9.8 33.1055 9.71 33.1055 9.61V6.94C33.1055 6.84 33.1355 6.76 33.1955 6.7C33.2755 6.62 33.3655 6.58 33.4655 6.58H35.1755C35.2755 6.58 35.3255 6.53 35.3255 6.43V2.86C35.3255 2.76 35.3555 2.68 35.4155 2.62C35.4955 2.54 35.5855 2.5 35.6855 2.5H39.0455C39.1455 2.5 39.2255 2.54 39.2855 2.62C39.3655 2.68 39.4055 2.76 39.4055 2.86V6.43C39.4055 6.53 39.4555 6.58 39.5555 6.58H42.4355C42.5355 6.58 42.6155 6.62 42.6755 6.7C42.7555 6.76 42.7955 6.84 42.7955 6.94V9.61ZM67.6079 21.55C67.6879 21.67 67.7279 21.75 67.7279 21.79C67.7279 21.93 67.6179 22 67.3979 22H63.4679C63.2879 22 63.1379 21.93 63.0179 21.79L61.8479 20.53C61.8079 20.47 61.7379 20.46 61.6379 20.5C59.7779 21.66 57.7779 22.24 55.6379 22.24C53.7579 22.24 52.1879 21.8 50.9279 20.92C49.6879 20.02 49.0679 18.7 49.0679 16.96C49.0679 15.62 49.4279 14.49 50.1479 13.57C50.8679 12.65 51.8479 11.82 53.0879 11.08C53.2079 11 53.2179 10.93 53.1179 10.87C52.1179 9.65 51.4579 8.71 51.1379 8.05C50.8179 7.37 50.6579 6.65 50.6579 5.89C50.6579 4.95 50.9079 4.09 51.4079 3.31C51.9279 2.51 52.6479 1.89 53.5679 1.45C54.5079 0.989999 55.5779 0.76 56.7779 0.76C57.9979 0.76 59.0879 0.989999 60.0479 1.45C61.0279 1.91 61.7879 2.56 62.3279 3.4C62.8679 4.22 63.1379 5.16 63.1379 6.22C63.1379 7.46 62.7879 8.54 62.0879 9.46C61.4079 10.36 60.4779 11.18 59.2979 11.92C59.1979 11.98 59.1879 12.05 59.2679 12.13L61.9379 15.16C62.0179 15.24 62.0979 15.24 62.1779 15.16C62.9379 14.32 63.5579 13.52 64.0379 12.76C64.1579 12.54 64.3179 12.5 64.5179 12.64L67.1279 14.11C67.3479 14.23 67.3979 14.39 67.2779 14.59C66.4379 15.91 65.5579 17.06 64.6379 18.04C64.5779 18.1 64.5979 18.19 64.6979 18.31L67.6079 21.55ZM56.8679 4.6C56.2679 4.6 55.7879 4.76 55.4279 5.08C55.0679 5.38 54.8879 5.79 54.8879 6.31C54.8879 6.59 54.9879 6.9 55.1879 7.24C55.3879 7.58 55.8279 8.16 56.5079 8.98C56.5479 9.06 56.6179 9.08 56.7179 9.04C57.4379 8.58 57.9779 8.14 58.3379 7.72C58.7179 7.3 58.9079 6.83 58.9079 6.31C58.9079 5.79 58.7179 5.38 58.3379 5.08C57.9579 4.76 57.4679 4.6 56.8679 4.6ZM55.7879 18.7C56.7479 18.7 57.8279 18.36 59.0279 17.68C59.1479 17.6 59.1579 17.53 59.0579 17.47L58.1279 16.42L57.4379 15.67C56.9979 15.21 56.4879 14.65 55.9079 13.99C55.8679 13.93 55.7979 13.92 55.6979 13.96C54.9779 14.4 54.4279 14.82 54.0479 15.22C53.6679 15.62 53.4479 16.08 53.3879 16.6C53.3679 16.66 53.3579 16.76 53.3579 16.9C53.3579 17.44 53.5779 17.88 54.0179 18.22C54.4779 18.54 55.0679 18.7 55.7879 18.7ZM87.6261 11.05C87.5061 11.11 87.5061 11.17 87.6261 11.23C89.5261 12.21 90.4761 13.84 90.4761 16.12C90.4761 18.06 89.8161 19.53 88.4961 20.53C87.1761 21.51 85.4461 22 83.3061 22H75.5361C75.4361 22 75.3461 21.97 75.2661 21.91C75.2061 21.83 75.1761 21.74 75.1761 21.64V1.36C75.1761 1.26 75.2061 1.18 75.2661 1.12C75.3461 1.04 75.4361 0.999999 75.5361 0.999999H83.0661C87.8061 0.999999 90.1761 2.92 90.1761 6.76C90.1761 8.76 89.3261 10.19 87.6261 11.05ZM79.5561 4.63C79.4561 4.63 79.4061 4.68 79.4061 4.78V9.46C79.4061 9.56 79.4561 9.61 79.5561 9.61H83.0661C84.0061 9.61 84.7361 9.39 85.2561 8.95C85.7761 8.51 86.0361 7.91 86.0361 7.15C86.0361 6.37 85.7761 5.76 85.2561 5.32C84.7361 4.86 84.0061 4.63 83.0661 4.63H79.5561ZM83.3061 18.34C84.2261 18.34 84.9461 18.11 85.4661 17.65C85.9861 17.17 86.2461 16.52 86.2461 15.7C86.2461 14.88 85.9861 14.24 85.4661 13.78C84.9461 13.3 84.2161 13.06 83.2761 13.06H79.5561C79.4561 13.06 79.4061 13.11 79.4061 13.21V18.19C79.4061 18.29 79.4561 18.34 79.5561 18.34H83.3061ZM99.4196 22.24C97.7396 22.24 96.2996 21.8 95.0996 20.92C93.8996 20.04 93.0796 18.84 92.6396 17.32C92.3596 16.38 92.2196 15.36 92.2196 14.26C92.2196 13.08 92.3596 12.02 92.6396 11.08C93.0996 9.6 93.9296 8.44 95.1296 7.6C96.3296 6.76 97.7696 6.34 99.4496 6.34C101.09 6.34 102.49 6.76 103.65 7.6C104.81 8.42 105.63 9.57 106.11 11.05C106.43 12.05 106.59 13.1 106.59 14.2C106.59 15.28 106.45 16.29 106.17 17.23C105.73 18.79 104.91 20.02 103.71 20.92C102.53 21.8 101.1 22.24 99.4196 22.24ZM99.4196 18.61C100.08 18.61 100.64 18.41 101.1 18.01C101.56 17.61 101.89 17.06 102.09 16.36C102.25 15.72 102.33 15.02 102.33 14.26C102.33 13.42 102.25 12.71 102.09 12.13C101.87 11.45 101.53 10.92 101.07 10.54C100.61 10.16 100.05 9.97 99.3896 9.97C98.7096 9.97 98.1396 10.16 97.6796 10.54C97.2396 10.92 96.9196 11.45 96.7196 12.13C96.5596 12.61 96.4796 13.32 96.4796 14.26C96.4796 15.16 96.5496 15.86 96.6896 16.36C96.8896 17.06 97.2196 17.61 97.6796 18.01C98.1596 18.41 98.7396 18.61 99.4196 18.61ZM108.769 22C108.669 22 108.579 21.97 108.499 21.91C108.439 21.83 108.409 21.74 108.409 21.64V1.36C108.409 1.26 108.439 1.18 108.499 1.12C108.579 1.04 108.669 0.999999 108.769 0.999999H112.279C112.379 0.999999 112.459 1.04 112.519 1.12C112.599 1.18 112.639 1.26 112.639 1.36V21.64C112.639 21.74 112.599 21.83 112.519 21.91C112.459 21.97 112.379 22 112.279 22H108.769ZM123.683 9.61C123.683 9.71 123.643 9.8 123.563 9.88C123.503 9.94 123.423 9.97 123.323 9.97H120.443C120.343 9.97 120.293 10.02 120.293 10.12V16.48C120.293 17.14 120.423 17.63 120.683 17.95C120.963 18.27 121.403 18.43 122.003 18.43H122.993C123.093 18.43 123.173 18.47 123.233 18.55C123.313 18.61 123.353 18.69 123.353 18.79V21.64C123.353 21.86 123.233 21.99 122.993 22.03C122.153 22.07 121.553 22.09 121.193 22.09C119.533 22.09 118.293 21.82 117.473 21.28C116.653 20.72 116.233 19.68 116.213 18.16V10.12C116.213 10.02 116.163 9.97 116.063 9.97H114.353C114.253 9.97 114.163 9.94 114.083 9.88C114.023 9.8 113.993 9.71 113.993 9.61V6.94C113.993 6.84 114.023 6.76 114.083 6.7C114.163 6.62 114.253 6.58 114.353 6.58H116.063C116.163 6.58 116.213 6.53 116.213 6.43V2.86C116.213 2.76 116.243 2.68 116.303 2.62C116.383 2.54 116.473 2.5 116.573 2.5H119.933C120.033 2.5 120.113 2.54 120.173 2.62C120.253 2.68 120.293 2.76 120.293 2.86V6.43C120.293 6.53 120.343 6.58 120.443 6.58H123.323C123.423 6.58 123.503 6.62 123.563 6.7C123.643 6.76 123.683 6.84 123.683 6.94V9.61Z" fill="white"/>
</svg>
