<?xml version="1.0" encoding="utf-8"?>
<!-- Generator: Adobe Illustrator 21.0.0, SVG Export Plug-In . SVG Version: 6.00 Build 0)  -->
<svg version="1.1" id="Layer_1" xmlns="http://www.w3.org/2000/svg" xmlns:xlink="http://www.w3.org/1999/xlink" x="0px" y="0px"
	 viewBox="0 0 38 38" style="enable-background:new 0 0 38 38;" xml:space="preserve">
<style type="text/css">
	.st0{fill:#FFA553;}
	.st1{fill:#FFFFFF;}
</style>
<g>
	<circle class="st0" cx="19" cy="19" r="18.3"/>
</g>
<path class="st1" d="M16,15.8c0.1,0,0.3,0,0.4,0c0.7-0.1,1.3-0.6,1.7-1.3c0.3-0.7,0.5-1.5,0.3-2.4c-0.3-1.6-1.5-2.7-2.8-2.7
	c-0.1,0-0.3,0-0.4,0c-0.7,0.1-1.3,0.6-1.7,1.3c-0.4,0.7-0.5,1.5-0.3,2.4C13.5,14.7,14.7,15.8,16,15.8z M14.8,11.4
	c0.1-0.2,0.3-0.5,0.7-0.6c0,0,0.1,0,0.1,0c0.5,0,1.2,0.6,1.4,1.6c0.1,0.5,0,1-0.2,1.4c-0.1,0.2-0.3,0.5-0.7,0.6c0,0-0.1,0-0.1,0
	c-0.5,0-1.2-0.6-1.4-1.6C14.5,12.3,14.5,11.8,14.8,11.4z"/>
<path class="st1" d="M13,15.7c-0.3-0.8-0.8-1.4-1.4-1.8c-0.4-0.3-0.9-0.4-1.4-0.4c-0.2,0-0.5,0-0.7,0.1c-1.3,0.5-1.9,2.2-1.4,3.8
	c0.3,0.8,0.8,1.4,1.4,1.8c0.4,0.3,0.9,0.4,1.4,0.4c0.2,0,0.5,0,0.7-0.1C12.9,19.1,13.5,17.4,13,15.7z M11.1,18.2c-0.1,0-0.1,0-0.2,0
	c-0.2,0-0.4-0.1-0.6-0.2c-0.4-0.2-0.7-0.6-0.8-1.1c-0.2-0.5-0.2-1,0-1.4c0.1-0.2,0.2-0.5,0.5-0.6c0.1,0,0.1,0,0.2,0
	c0.2,0,0.4,0.1,0.6,0.2c0.4,0.2,0.7,0.6,0.8,1.1c0.2,0.5,0.2,1,0,1.4C11.6,17.8,11.4,18.1,11.1,18.2z"/>
<path class="st1" d="M21.7,15.8c0.1,0,0.3,0,0.4,0c1.3,0,2.5-1.2,2.8-2.7c0.2-0.8,0-1.7-0.3-2.4c-0.4-0.7-1-1.2-1.7-1.3
	c-0.1,0-0.3,0-0.4,0c-1.3,0-2.5,1.2-2.8,2.7c-0.2,0.8,0,1.7,0.3,2.4C20.4,15.2,20.9,15.7,21.7,15.8z M21.1,12.4
	c0.2-1,0.9-1.6,1.4-1.6c0,0,0.1,0,0.1,0c0.4,0.1,0.6,0.3,0.7,0.6c0.2,0.4,0.3,0.9,0.2,1.4c-0.2,1-0.9,1.6-1.4,1.6c0,0-0.1,0-0.1,0
	c-0.4-0.1-0.6-0.3-0.7-0.6C21,13.4,21,12.9,21.1,12.4z"/>
<path class="st1" d="M28.5,13.6c-0.2-0.1-0.5-0.1-0.7-0.1c-0.5,0-0.9,0.1-1.4,0.4c-0.6,0.4-1.1,1.1-1.4,1.8c-0.6,1.7,0,3.4,1.4,3.8
	c0.2,0.1,0.5,0.1,0.7,0.1c0.5,0,0.9-0.1,1.4-0.4c0.6-0.4,1.1-1.1,1.4-1.8C30.4,15.7,29.8,14,28.5,13.6z M28.5,16.9
	c-0.2,0.5-0.5,0.9-0.8,1.1c-0.2,0.1-0.4,0.2-0.6,0.2c-0.1,0-0.2,0-0.2,0c-0.5-0.2-0.8-1-0.5-2c0.2-0.5,0.5-0.9,0.8-1.1
	c0.2-0.1,0.4-0.2,0.6-0.2c0.1,0,0.2,0,0.2,0c0.3,0.1,0.5,0.4,0.5,0.6C28.7,15.9,28.7,16.4,28.5,16.9z"/>
<path class="st1" d="M22.1,17.5c-0.9-0.7-2-1.1-3.1-1.1s-2.2,0.4-3.1,1.1c-2.2,1.8-4.8,4.4-4.8,6.8c0,2.9,4,4.4,7.9,4.4
	s7.9-1.4,7.9-4.4C26.9,21.8,24.4,19.3,22.1,17.5z M19,27.2c-3.2,0-6.5-1.1-6.5-2.9c0-1.4,1.5-3.5,4.2-5.7c0.6-0.5,1.4-0.8,2.3-0.8
	s1.6,0.3,2.3,0.8c2.7,2.2,4.2,4.2,4.2,5.7C25.5,26.1,22.2,27.2,19,27.2z"/>
</svg>
