<?xml version="1.0" encoding="utf-8"?>
<!-- Generator: Adobe Illustrator 21.0.0, SVG Export Plug-In . SVG Version: 6.00 Build 0)  -->
<svg version="1.1" id="Layer_1" xmlns="http://www.w3.org/2000/svg" xmlns:xlink="http://www.w3.org/1999/xlink" x="0px" y="0px"
	 viewBox="0 0 38 38" style="enable-background:new 0 0 38 38;" xml:space="preserve">
<style type="text/css">
	.st0{fill:#4A7AFF;}
	.st1{fill:#FFFFFF;}
</style>
<g>
	<circle class="st0" cx="19" cy="19" r="18.7"/>
</g>
<path class="st1" d="M20.7,13.6c0-1.9-1.5-3.5-3.5-3.5c-1.9,0-3.5,1.5-3.5,3.5v14.7c0,0.5,0.4,0.9,0.9,0.9s0.9-0.4,0.9-0.9V13.6
	c0-1,0.8-1.7,1.7-1.7c1,0,1.7,0.8,1.7,1.7c0,0.5,0.4,0.9,0.9,0.9C20.3,14.5,20.7,14.1,20.7,13.6z"/>
<path class="st1" d="M29.3,13.6c0-1.9-1.5-3.5-3.5-3.5c-1.9,0-3.5,1.5-3.5,3.5v14.7c0,0.5,0.4,0.9,0.9,0.9c0.5,0,0.9-0.4,0.9-0.9
	V13.6c0-1,0.8-1.7,1.7-1.7c1,0,1.7,0.8,1.7,1.7c0,0.5,0.4,0.9,0.9,0.9C28.9,14.5,29.3,14.1,29.3,13.6z"/>
<path class="st1" d="M14.7,18h8.6c0.5,0,0.9-0.4,0.9-0.9s-0.4-0.9-0.9-0.9h-8.6c-0.5,0-0.9,0.4-0.9,0.9S14.2,18,14.7,18z"/>
<path class="st1" d="M14.7,22.3h8.6c0.5,0,0.9-0.4,0.9-0.9c0-0.5-0.4-0.9-0.9-0.9h-8.6c-0.5,0-0.9,0.4-0.9,0.9
	C13.8,21.9,14.2,22.3,14.7,22.3z"/>
<path class="st1" d="M9.5,19.7h5.2c0.5,0,0.9-0.4,0.9-0.9c0-0.5-0.4-0.9-0.9-0.9H9.5c-0.5,0-0.9,0.4-0.9,0.9
	C8.6,19.3,9,19.7,9.5,19.7z"/>
<path class="st1" d="M23.3,19.7h5.2c0.5,0,0.9-0.4,0.9-0.9c0-0.5-0.4-0.9-0.9-0.9h-5.2c-0.5,0-0.9,0.4-0.9,0.9
	C22.4,19.3,22.8,19.7,23.3,19.7z"/>
</svg>
