<svg width="50" height="56" viewBox="0 0 50 56" fill="none" xmlns="http://www.w3.org/2000/svg">
<path fill-rule="evenodd" clip-rule="evenodd" d="M45.625 4.625L41.5 0.5L37.375 4.625L33.25 0.5L29.125 4.625L25 0.5L20.875 4.625L16.75 0.5L12.625 4.625L8.5 0.5L4.375 4.625L0.25 0.5V55.5L4.375 51.375L8.5 55.5L12.625 51.375L16.75 55.5L20.875 51.375L25 55.5L29.125 51.375L33.25 55.5L37.375 51.375L41.5 55.5L45.625 51.375L49.75 55.5V0.5L45.625 4.625ZM5.75 47.4975V8.50245H44.25V47.4975H5.75ZM41.5 41.75V36.25H8.5V41.75H41.5ZM41.5 25.25V30.75H8.5V25.25H41.5ZM41.5 19.75V14.25H8.5V19.75H41.5Z" fill="#FFCB3E"/>
</svg>
