<svg width="18" height="18" viewBox="0 0 18 18" fill="none" xmlns="http://www.w3.org/2000/svg">
<path d="M12.666 0.779327C10.469 -0.194015 7.96905 -0.268888 5.69633 0.629582C4.18118 1.22856 2.81754 2.2019 1.83269 3.47474L1.45391 2.12703C1.37815 1.6778 0.999363 1.45318 0.544818 1.52805C0.16603 1.6778 -0.0612422 2.05216 0.0145153 2.42652L0.77209 5.49629C0.847847 5.87066 1.15088 6.09527 1.52966 6.09527C1.60542 6.09527 1.68118 6.09527 1.68118 6.09527L4.78724 5.34655C5.16602 5.27168 5.46905 4.82244 5.31754 4.44808C5.31754 3.99884 4.86299 3.77423 4.48421 3.92397L3.19633 4.22346C4.02966 3.25012 5.01451 2.50139 6.22663 2.05216C8.12056 1.30343 10.166 1.37831 12.06 2.2019C13.8781 3.0255 15.3175 4.44808 16.0751 6.31989C16.8327 8.1917 16.7569 10.2133 15.9236 12.0851C15.0903 13.9569 13.6509 15.3046 11.7569 16.0533C9.10541 17.0267 6.15087 16.5774 4.02966 14.7056C3.12057 13.882 2.363 12.9087 1.90845 11.7856C1.75694 11.4112 1.30239 11.1866 0.923605 11.3363C0.544818 11.4861 0.317545 11.9353 0.46906 12.3097C0.999362 13.6574 1.90845 14.9302 2.96906 15.8287C4.63572 17.2513 6.75693 18 8.9539 18C10.0903 18 11.1509 17.7754 12.2115 17.401C14.4842 16.5026 16.2266 14.8554 17.2115 12.6841C18.1963 10.5128 18.2721 8.04196 17.363 5.79578C16.4539 3.54961 14.9387 1.75267 12.666 0.779327Z" fill="#727886"/>
<path d="M8.8369 4C8.33476 4 8 4.32727 8 4.81818V9.72727C8 9.97273 8.08369 10.2182 8.33476 10.3818L11.6824 12.8364C11.8497 12.9182 12.0171 13 12.1845 13C12.4356 13 12.6866 12.9182 12.854 12.6727C13.1051 12.3455 13.0214 11.7727 12.6866 11.5273L9.6738 9.31818V4.81818C9.6738 4.32727 9.33904 4 8.8369 4Z" fill="#727886"/>
</svg>
