<svg width="24" height="23" viewBox="0 0 24 23" fill="none" xmlns="http://www.w3.org/2000/svg">
<path d="M22.7945 21.1061L16.9531 15.1582C18.4283 13.3117 19.1514 10.9593 18.9734 8.58591C18.7954 6.21253 17.7298 3.99917 15.9964 2.40217C14.263 0.80517 11.9938 -0.0537128 9.65681 0.00260429C7.3198 0.0589214 5.0931 1.02614 3.4358 2.70485C1.78716 4.39237 0.837255 6.65968 0.781946 9.0393C0.726638 11.4189 1.57014 13.7294 3.13854 15.4945C4.70694 17.2595 6.88067 18.3445 9.21154 18.5258C11.5424 18.707 13.8527 17.9707 15.6662 16.4686L21.5075 22.4165C21.6822 22.5688 21.9068 22.6483 22.1365 22.6393C22.3662 22.6303 22.5841 22.5333 22.7466 22.3678C22.9092 22.2023 23.0044 21.9804 23.0133 21.7465C23.0221 21.5126 22.944 21.2839 22.7945 21.1061ZM4.72273 14.5356C3.70109 13.496 3.00519 12.1712 2.72307 10.7289C2.44094 9.28652 2.58526 7.79137 3.13777 6.43254C3.69028 5.07371 4.62615 3.91226 5.82702 3.09509C7.02788 2.27792 8.43978 1.84175 9.88413 1.84175C11.3285 1.84175 12.7404 2.27792 13.9412 3.09509C15.1421 3.91226 16.078 5.07371 16.6305 6.43254C17.183 7.79137 17.3273 9.28652 17.0452 10.7289C16.7631 12.1712 16.0672 13.496 15.0455 14.5356C14.3707 15.231 13.5669 15.7832 12.6809 16.16C11.7949 16.5369 10.8443 16.7309 9.88413 16.7309C8.92395 16.7309 7.97332 16.5369 7.08733 16.16C6.20134 15.7832 5.39761 15.231 4.72273 14.5356Z" fill="#525252"/>
</svg>
