<svg width="69" height="69" viewBox="0 0 69 69" fill="none" xmlns="http://www.w3.org/2000/svg">
<g filter="url(#filter0_d)">
<path fill-rule="evenodd" clip-rule="evenodd" d="M28.5168 48.8734C15.0649 48.8734 4.16003 37.9685 4.16003 24.5167C4.16003 11.0648 15.0649 0.159973 28.5168 0.159973C41.9686 0.159973 52.8735 11.0648 52.8735 24.5167C52.8735 30.1453 50.9643 35.3279 47.7581 39.4524L64.1601 55.8543L59.8543 60.16L43.4524 43.7581C39.3279 46.9642 34.1453 48.8734 28.5168 48.8734ZM46.7844 24.5167C46.7844 34.6055 38.6057 42.7842 28.5168 42.7842C18.4279 42.7842 10.2493 34.6055 10.2493 24.5167C10.2493 14.4278 18.4279 6.24915 28.5168 6.24915C38.6057 6.24915 46.7844 14.4278 46.7844 24.5167Z" fill="#407FDB"/>
</g>
<defs>
<filter id="filter0_d" x="0.160034" y="0.159973" width="68" height="68" filterUnits="userSpaceOnUse" color-interpolation-filters="sRGB">
<feFlood flood-opacity="0" result="BackgroundImageFix"/>
<feColorMatrix in="SourceAlpha" type="matrix" values="0 0 0 0 0 0 0 0 0 0 0 0 0 0 0 0 0 0 127 0"/>
<feOffset dy="4"/>
<feGaussianBlur stdDeviation="2"/>
<feColorMatrix type="matrix" values="0 0 0 0 0 0 0 0 0 0 0 0 0 0 0 0 0 0 0.25 0"/>
<feBlend mode="normal" in2="BackgroundImageFix" result="effect1_dropShadow"/>
<feBlend mode="normal" in="SourceGraphic" in2="effect1_dropShadow" result="shape"/>
</filter>
</defs>
</svg>
