<svg width="62" height="62" viewBox="0 0 62 62" fill="none" xmlns="http://www.w3.org/2000/svg">
<path fill-rule="evenodd" clip-rule="evenodd" d="M49.3045 55.4668L55.4017 49.3696L53.2543 41.5682L54.1898 39.3338L61.25 35.35V26.7277L54.2099 22.7273L53.29 20.4968L55.4644 12.6915L49.3629 6.59879L41.5608 8.74557L39.3314 7.81083L35.3472 0.75H26.725L22.7245 7.79012L20.4946 8.70978L12.6905 6.53272L6.59843 12.6247L8.74557 20.4281L7.81083 22.6574L0.75 26.6416V35.2615L7.78378 39.2708L8.70443 41.5032L6.53041 49.3072L12.6247 55.4016L20.4281 53.2544L22.6577 54.1893L26.642 61.2472H35.2621L39.2685 54.2133L41.5004 53.2928L49.3045 55.4668ZM49.8448 35.4704L47.4474 41.1963L49.2496 47.7435L47.6864 49.3066L41.1531 47.4866L35.4246 49.8492L32.0652 55.7472H29.853L26.5214 49.8454L20.8018 47.4472L14.251 49.2497L12.6906 47.6892L14.5106 41.1559L12.1483 35.4279L6.25 32.0658V29.8534L12.1545 26.5216L14.5528 20.8018L12.7503 14.251L14.3075 12.6938L20.8408 14.5164L26.5713 12.153L29.9256 6.25H32.1355L35.4673 12.1545L41.1871 14.5528L47.7391 12.75L49.3035 14.3121L47.4838 20.8441L49.847 26.574L55.75 29.9284V32.1383L49.8448 35.4704ZM31 42C24.9249 42 20 37.0751 20 31C20 24.9249 24.9249 20 31 20C37.0751 20 42 24.9249 42 31C42 37.0751 37.0751 42 31 42ZM36.5 31C36.5 34.0376 34.0376 36.5 31 36.5C27.9624 36.5 25.5 34.0376 25.5 31C25.5 27.9624 27.9624 25.5 31 25.5C34.0376 25.5 36.5 27.9624 36.5 31Z" fill="#25D366"/>
</svg>
