<?xml version="1.0" encoding="utf-8"?>
<!-- Generator: Adobe Illustrator 21.0.0, SVG Export Plug-In . SVG Version: 6.00 Build 0)  -->
<svg version="1.1" id="Layer_1" xmlns="http://www.w3.org/2000/svg" xmlns:xlink="http://www.w3.org/1999/xlink" x="0px" y="0px"
	 viewBox="0 0 38 38" style="enable-background:new 0 0 38 38;" xml:space="preserve">
<style type="text/css">
	.st0{fill:#FF6363;}
	.st1{clip-path:url(#SVGID_2_);}
	.st2{fill:#FFFFFF;}
</style>
<g>
	<circle class="st0" cx="19" cy="19" r="18.5"/>
</g>
<g>
	<defs>
		<rect id="SVGID_1_" x="10.6" y="7.2" width="18.5" height="23.5"/>
	</defs>
	<clipPath id="SVGID_2_">
		<use xlink:href="#SVGID_1_"  style="overflow:visible;"/>
	</clipPath>
	<g class="st1">
		<path class="st2" d="M22.3,13.5c-1.6,0-2.9-1.4-2.9-3.1c0-1.7,1.3-3.1,2.9-3.1c1.6,0,2.9,1.4,2.9,3.1
			C25.2,12.1,23.9,13.5,22.3,13.5z M22.3,12.1c0.9,0,1.6-0.8,1.6-1.7c0-1-0.7-1.7-1.6-1.7c-0.9,0-1.6,0.8-1.6,1.7
			C20.7,11.3,21.4,12.1,22.3,12.1z M21.1,15.6l-1.9-0.7l-4.3,2.9c-0.3,0.2-0.7,0.1-0.9-0.2c-0.2-0.3-0.1-0.8,0.2-1l4.5-3.1
			c0.2-0.1,0.4-0.1,0.6-0.1l5.8,2.1c0.1,0,0.1,0.1,0.2,0.1l3.6,3.1c0.3,0.2,0.3,0.7,0.1,1c-0.2,0.3-0.6,0.3-0.9,0.1l-3.5-3L22.3,16
			l-2,4.5v5c0,0.1,0,0.3-0.1,0.4l-2.9,4.5c-0.2,0.3-0.6,0.4-0.9,0.2c-0.3-0.2-0.4-0.6-0.2-1l2.8-4.3v-3.7l-3.9,2.7
			c-0.4,0.3-1,0-1-0.6v-2.8c0-0.4,0.3-0.7,0.6-0.7c0.4,0,0.6,0.3,0.6,0.7v1.5l3.7-2.6L21.1,15.6z M12.9,30.8c-1.3,0-2.3-1.1-2.3-2.4
			c0-1.3,1-2.4,2.3-2.4c1.3,0,2.3,1.1,2.3,2.4C15.1,29.7,14.1,30.8,12.9,30.8z M12.9,29.4c0.5,0,1-0.5,1-1s-0.4-1-1-1
			c-0.5,0-1,0.5-1,1S12.3,29.4,12.9,29.4z"/>
	</g>
</g>
</svg>
