<svg xmlns="http://www.w3.org/2000/svg" viewBox="0 0 32 32" width="32" height="32">
	<style>
		tspan { white-space:pre }
		.shp0 { fill: #ff9736 } 
		.shp1 { fill: #ffffff } 
	</style>
	<g id="Layer">
		<path id="Layer" class="shp0" d="M16 32C7.15 32 0 24.85 0 16C0 7.15 7.15 0 16 0C24.85 0 32 7.15 32 16C32 24.85 24.85 32 16 32Z" />
	</g>
	<path id="Layer" class="shp1" d="M16.25 10.42C16.61 10.42 16.9 10.13 16.9 9.77L16.9 7.15C16.9 6.79 16.61 6.5 16.25 6.5C15.89 6.5 15.6 6.79 15.6 7.15L15.6 9.77C15.6 10.13 15.89 10.42 16.25 10.42Z" />
	<path id="Layer" class="shp1" d="M15.6 22.73L15.6 25.35C15.6 25.71 15.89 26 16.25 26C16.61 26 16.9 25.71 16.9 25.35L16.9 22.73C16.9 22.37 16.61 22.08 16.25 22.08C15.89 22.08 15.6 22.37 15.6 22.73Z" />
	<path id="Layer" class="shp1" d="M25.35 15.6L22.73 15.6C22.37 15.6 22.08 15.89 22.08 16.25C22.08 16.61 22.37 16.9 22.73 16.9L25.35 16.9C25.71 16.9 26 16.61 26 16.25C26 15.89 25.71 15.6 25.35 15.6Z" />
	<path id="Layer" class="shp1" d="M10.42 16.25C10.42 15.89 10.13 15.6 9.77 15.6L7.15 15.6C6.79 15.6 6.5 15.89 6.5 16.25C6.5 16.61 6.79 16.9 7.15 16.9L9.77 16.9C10.13 16.9 10.42 16.61 10.42 16.25Z" />
	<path id="Layer" class="shp1" d="M20.83 12.32C21 12.32 21.17 12.26 21.3 12.13L23.14 10.28C23.4 10.02 23.4 9.61 23.14 9.36C22.89 9.1 22.48 9.1 22.22 9.36L20.37 11.2C20.12 11.46 20.12 11.87 20.37 12.13C20.5 12.26 20.67 12.32 20.83 12.32Z" />
	<path id="Layer" class="shp1" d="M11.2 20.37L9.36 22.22C9.1 22.47 9.1 22.89 9.36 23.14C9.48 23.27 9.65 23.34 9.82 23.34C9.98 23.34 10.15 23.27 10.28 23.14L12.13 21.3C12.38 21.04 12.38 20.63 12.13 20.37C11.87 20.12 11.46 20.12 11.2 20.37Z" />
	<path id="Layer" class="shp1" d="M20.37 20.37C20.12 20.63 20.12 21.04 20.37 21.3L22.22 23.14C22.35 23.27 22.52 23.34 22.68 23.34C22.85 23.34 23.02 23.27 23.14 23.14C23.4 22.89 23.4 22.48 23.14 22.22L21.3 20.37C21.04 20.12 20.63 20.12 20.37 20.37Z" />
	<path id="Layer" class="shp1" d="M11.2 12.13C11.33 12.26 11.5 12.32 11.67 12.32C11.83 12.32 12 12.26 12.13 12.13C12.38 11.87 12.38 11.46 12.13 11.2L10.28 9.36C10.02 9.1 9.61 9.1 9.36 9.36C9.1 9.61 9.1 10.02 9.36 10.28L11.2 12.13Z" />
	<path id="Layer" fill-rule="evenodd" class="shp1" d="M21.21 16.25C21.21 19 18.97 21.23 16.22 21.23C13.47 21.23 11.24 19 11.24 16.25C11.24 13.5 13.47 11.27 16.22 11.27C18.97 11.27 21.21 13.5 21.21 16.25ZM19.79 16.25C19.79 14.28 18.19 12.68 16.22 12.68C14.26 12.68 12.66 14.28 12.66 16.25C12.66 18.22 14.26 19.82 16.22 19.82C18.19 19.82 19.79 18.22 19.79 16.25Z" />
</svg>