<svg xmlns="http://www.w3.org/2000/svg" viewBox="0 0 98 98" width="98" height="98">
	<defs>
		<clipPath clipPathUnits="userSpaceOnUse" id="cp1">
			<path d="M0 0L98 0L98 98L0 98L0 0Z" />
		</clipPath>
	</defs>
	<style>
		tspan { white-space:pre }
		.shp0 { fill: #f44a69 } 
		.shp1 { fill: #ff8359 } 
		.shp2 { fill: #ff7e96 } 
		.shp3 { fill: #ffdd63 } 
		.shp4 { fill: #ffca55 } 
		.shp5 { fill: #30abd9 } 
		.shp6 { fill: #ffffff } 
	</style>
	<g id="Clip-Path" clip-path="url(#cp1)">
		<g id="Layer">
			<path id="Layer" class="shp0" d="M89.83 63.7C87.55 63.7 85.52 62.52 84.36 60.73C83.69 59.7 83.3 58.47 83.3 57.17C83.3 53.56 86.22 50.63 89.83 50.63C93.44 50.63 96.37 53.56 96.37 57.17C96.37 60.78 93.44 63.7 89.83 63.7Z" />
			<path id="Layer" class="shp1" d="M89.8 33.5C86.7 36.03 82.73 37.57 78.4 37.57C76.24 37.57 74.19 37.19 72.29 36.51L72.29 36.49C70.35 35.8 68.57 34.77 67 33.5C67.41 28.47 71.64 24.5 76.77 24.5L80.03 24.5C85.16 24.5 89.39 28.47 89.8 33.5Z" />
			<path id="Layer" class="shp1" d="M84.93 17.97C84.93 21.57 82.01 24.5 78.4 24.5C74.79 24.5 71.87 21.57 71.87 17.97C71.87 14.36 74.79 11.43 78.4 11.43C82.01 11.43 84.93 14.36 84.93 17.97Z" />
			<path id="Layer" class="shp2" d="M78.4 1.63C88.33 1.63 96.37 9.67 96.37 19.6C96.37 25.2 93.82 30.2 89.8 33.5C89.39 28.47 85.16 24.5 80.03 24.5L78.4 24.5C82.01 24.5 84.93 21.58 84.93 17.97C84.93 14.36 82.01 11.43 78.4 11.43C74.79 11.43 71.87 14.36 71.87 17.97C71.87 21.58 74.79 24.5 78.4 24.5L76.77 24.5C71.64 24.5 67.41 28.47 67 33.5C64.78 31.67 63 29.32 61.85 26.62C60.94 24.47 60.43 22.1 60.43 19.6C60.43 17.41 60.83 15.32 61.54 13.39C64.06 6.52 70.66 1.63 78.4 1.63Z" />
			<path id="Layer" class="shp3" d="M57.17 96.37C52.82 96.37 48.84 94.83 45.73 92.27C46.16 87.25 50.39 83.3 55.5 83.3L58.77 83.3C63.9 83.3 68.13 87.27 68.53 92.3L68.55 92.32C65.45 94.85 61.49 96.37 57.17 96.37Z" />
			<path id="Layer" class="shp2" d="M55.5 83.3C50.39 83.3 46.16 87.25 45.73 92.27C42.76 89.82 40.6 86.44 39.69 82.56C39.36 81.23 39.2 79.84 39.2 78.4C39.2 73.12 41.47 68.39 45.08 65.1C48.26 62.2 52.51 60.43 57.17 60.43C59.32 60.43 61.38 60.81 63.28 61.49L63.28 61.51C66.98 62.83 70.12 65.37 72.23 68.62C74.07 71.43 75.13 74.79 75.13 78.4C75.13 84 72.57 89.02 68.55 92.32L68.53 92.3C68.13 87.27 63.9 83.3 58.77 83.3L57.13 83.3C60.74 83.3 63.67 80.38 63.67 76.77C63.67 73.16 60.74 70.23 57.13 70.23C53.52 70.23 50.6 73.16 50.6 76.77C50.6 80.38 53.52 83.3 57.13 83.3L55.5 83.3Z" />
			<path id="Layer" class="shp4" d="M63.67 76.77C63.67 80.37 60.74 83.3 57.13 83.3C53.53 83.3 50.6 80.37 50.6 76.77C50.6 73.16 53.53 70.23 57.13 70.23C60.74 70.23 63.67 73.16 63.67 76.77Z" />
			<path id="Layer" class="shp0" d="M47.37 1.63C50.98 1.63 53.9 4.56 53.9 8.17C53.9 8.97 53.75 9.72 53.49 10.42C52.58 12.92 50.18 14.7 47.37 14.7C43.76 14.7 40.83 11.78 40.83 8.17C40.83 4.56 43.76 1.63 47.37 1.63Z" />
			<path id="Layer" class="shp5" d="M24.5 60.43C21.33 60.43 18.36 59.62 15.78 58.18C14.81 57.66 13.92 57.04 13.07 56.33C13.49 51.32 17.72 47.37 22.83 47.37L26.1 47.37C31.23 47.37 35.46 51.34 35.87 56.37L35.88 56.38C32.78 58.91 28.83 60.43 24.5 60.43Z" />
			<path id="Layer" class="shp5" d="M31 40.83C31 44.44 28.08 47.37 24.47 47.37C20.86 47.37 17.93 44.44 17.93 40.83C17.93 37.23 20.86 34.3 24.47 34.3C28.08 34.3 31 37.23 31 40.83Z" />
			<path id="Layer" class="shp0" d="M22.87 93.1C19.26 93.1 16.33 90.18 16.33 86.57C16.33 82.96 19.26 80.03 22.87 80.03C25.95 80.03 28.53 82.17 29.22 85.05C29.33 85.54 29.4 86.04 29.4 86.57C29.4 90.18 26.48 93.1 22.87 93.1Z" />
			<path id="Layer" class="shp2" d="M22.83 47.37C17.72 47.37 13.49 51.32 13.07 56.33C9.08 53.03 6.53 48.05 6.53 42.47C6.53 35.3 10.71 29.12 16.77 26.23C19.11 25.12 21.74 24.5 24.5 24.5C31.93 24.5 38.3 29.01 41.05 35.44C41.96 37.6 42.47 39.97 42.47 42.47C42.47 47.74 40.2 52.48 36.59 55.76C36.36 55.97 36.13 56.17 35.88 56.38L35.87 56.37C35.46 51.34 31.23 47.37 26.1 47.37L24.47 47.37C28.08 47.37 31 44.44 31 40.83C31 37.22 28.08 34.3 24.47 34.3C20.86 34.3 17.93 37.22 17.93 40.83C17.93 44.44 20.86 47.37 24.47 47.37L22.83 47.37Z" />
			<path id="Layer" class="shp0" d="M8.17 65.33C9.31 65.33 10.4 65.63 11.34 66.17C13.34 67.28 14.7 69.42 14.7 71.87C14.7 75.48 11.78 78.4 8.17 78.4C4.56 78.4 1.63 75.48 1.63 71.87C1.63 68.26 4.56 65.33 8.17 65.33Z" />
			<path id="Layer" class="shp0" d="M8.17 1.63C11.78 1.63 14.7 4.56 14.7 8.17C14.7 10.76 13.18 13.02 10.98 14.05C10.13 14.47 9.16 14.7 8.17 14.7C4.56 14.7 1.63 11.78 1.63 8.17C1.63 4.56 4.56 1.63 8.17 1.63Z" />
			<path id="Layer" fill-rule="evenodd" class="shp6" d="M73.31 38.5L65.33 60.6C68.21 61.93 70.71 63.93 72.63 66.4L82.25 60.15C81.88 59.22 81.67 58.22 81.67 57.17C81.67 52.66 85.33 49 89.83 49C94.34 49 98 52.66 98 57.17C98 61.67 94.34 65.33 89.83 65.33C87.56 65.33 85.51 64.4 84.02 62.89L74.43 69.13C75.92 71.89 76.77 75.05 76.77 78.4C76.77 89.21 67.97 98 57.17 98C48.49 98 41.13 92.33 38.56 84.51L31.01 86.3C31.01 86.39 31.03 86.48 31.03 86.57C31.03 91.07 27.37 94.73 22.87 94.73C18.36 94.73 14.7 91.07 14.7 86.57C14.7 82.06 18.36 78.4 22.87 78.4C26.14 78.4 28.94 80.34 30.25 83.13L37.81 81.33C37.67 80.37 37.57 79.4 37.57 78.4C37.57 73.25 39.58 68.57 42.84 65.07L36.41 58C33.1 60.54 28.98 62.07 24.5 62.07C21.63 62.07 18.91 61.43 16.46 60.32L13.46 65.7C15.2 67.2 16.33 69.39 16.33 71.87C16.33 76.37 12.67 80.03 8.17 80.03C3.66 80.03 0 76.37 0 71.87C0 67.36 3.66 63.7 8.17 63.7C9.02 63.7 9.83 63.87 10.61 64.11L13.6 58.74C8.36 55.22 4.9 49.24 4.9 42.47C4.9 35.25 8.83 28.96 14.64 25.55L10.13 16.07C9.5 16.23 8.85 16.33 8.17 16.33C3.66 16.33 0 12.67 0 8.17C0 3.66 3.66 0 8.17 0C12.67 0 16.33 3.66 16.33 8.17C16.33 10.82 15.04 13.16 13.07 14.65L17.59 24.15C19.74 23.33 22.07 22.87 24.5 22.87C32.01 22.87 38.54 27.12 41.83 33.34L59.79 25.72C59.16 23.79 58.8 21.74 58.8 19.6C58.8 17.79 59.06 16.05 59.52 14.39L54.29 12.46C52.84 14.77 50.29 16.33 47.37 16.33C42.86 16.33 39.2 12.67 39.2 8.17C39.2 3.66 42.86 0 47.37 0C51.87 0 55.53 3.66 55.53 8.17C55.53 8.58 55.47 8.99 55.41 9.39L60.66 11.33C63.78 4.65 70.55 0 78.4 0C89.21 0 98 8.79 98 19.6C98 30.41 89.21 39.2 78.4 39.2C76.64 39.2 74.93 38.94 73.31 38.5ZM52.27 8.17C52.27 5.47 50.07 3.27 47.37 3.27C44.67 3.27 42.47 5.47 42.47 8.17C42.47 10.87 44.67 13.07 47.37 13.07C50.07 13.07 52.27 10.87 52.27 8.17ZM8.17 13.07C10.87 13.07 13.07 10.87 13.07 8.17C13.07 5.47 10.87 3.27 8.17 3.27C5.47 3.27 3.27 5.47 3.27 8.17C3.27 10.87 5.47 13.07 8.17 13.07ZM13.07 71.87C13.07 69.17 10.87 66.97 8.17 66.97C5.47 66.97 3.27 69.17 3.27 71.87C3.27 74.57 5.47 76.77 8.17 76.77C10.87 76.77 13.07 74.57 13.07 71.87ZM27.77 86.57C27.77 83.87 25.57 81.67 22.87 81.67C20.17 81.67 17.97 83.87 17.97 86.57C17.97 89.27 20.17 91.47 22.87 91.47C25.57 91.47 27.77 89.27 27.77 86.57ZM84.93 57.17C84.93 59.87 87.13 62.07 89.83 62.07C92.53 62.07 94.73 59.87 94.73 57.17C94.73 54.47 92.53 52.27 89.83 52.27C87.13 52.27 84.93 54.47 84.93 57.17ZM78.4 35.93C82 35.93 85.32 34.75 88.02 32.77C87.29 28.99 83.96 26.13 80.03 26.13L76.77 26.13C72.84 26.13 69.51 28.99 68.78 32.77C71.48 34.75 74.8 35.93 78.4 35.93ZM62.07 19.6C62.07 23.68 63.58 27.41 66.07 30.28C67.22 27.27 69.6 24.86 72.58 23.67C71.13 22.2 70.23 20.19 70.23 17.97C70.23 13.46 73.9 9.8 78.4 9.8C82.9 9.8 86.57 13.46 86.57 17.97C86.57 20.19 85.67 22.2 84.22 23.67C87.2 24.86 89.58 27.27 90.73 30.28C93.22 27.41 94.73 23.68 94.73 19.6C94.73 10.59 87.41 3.27 78.4 3.27C69.39 3.27 62.07 10.59 62.07 19.6ZM83.3 17.97C83.3 15.27 81.1 13.07 78.4 13.07C75.7 13.07 73.5 15.27 73.5 17.97C73.5 20.67 75.7 22.87 78.4 22.87C81.1 22.87 83.3 20.67 83.3 17.97ZM12.15 53.12C13.3 50.12 15.68 47.72 18.64 46.54C17.2 45.07 16.3 43.05 16.3 40.83C16.3 36.33 19.96 32.67 24.47 32.67C28.97 32.67 32.63 36.33 32.63 40.83C32.63 43.05 31.74 45.07 30.29 46.54C33.27 47.73 35.67 50.15 36.81 53.17C39.31 50.3 40.83 46.56 40.83 42.47C40.83 33.46 33.51 26.13 24.5 26.13C15.49 26.13 8.17 33.46 8.17 42.47C8.17 46.54 9.67 50.26 12.15 53.12ZM24.47 45.73C27.17 45.73 29.37 43.53 29.37 40.83C29.37 38.13 27.17 35.93 24.47 35.93C21.77 35.93 19.57 38.13 19.57 40.83C19.57 43.53 21.77 45.73 24.47 45.73ZM24.5 58.8C28.08 58.8 31.39 57.63 34.09 55.66C33.37 51.87 30.03 49 26.1 49L22.83 49C18.92 49 15.59 51.85 14.85 55.62C17.56 57.61 20.89 58.8 24.5 58.8ZM57.17 94.73C60.75 94.73 64.06 93.56 66.76 91.59C66.04 87.8 62.7 84.93 58.77 84.93L55.5 84.93C51.58 84.93 48.26 87.78 47.52 91.55C50.23 93.54 53.56 94.73 57.17 94.73ZM57.17 62.07C48.16 62.07 40.83 69.39 40.83 78.4C40.83 82.47 42.34 86.19 44.81 89.05C45.96 86.05 48.35 83.66 51.31 82.47C49.86 81 48.97 78.99 48.97 76.77C48.97 72.26 52.63 68.6 57.13 68.6C61.64 68.6 65.3 72.26 65.3 76.77C65.3 78.99 64.4 81 62.96 82.47C65.94 83.66 68.33 86.08 69.47 89.11C71.97 86.24 73.5 82.5 73.5 78.4C73.5 69.39 66.17 62.07 57.17 62.07ZM62.03 76.77C62.03 74.07 59.84 71.87 57.13 71.87C54.43 71.87 52.23 74.07 52.23 76.77C52.23 79.47 54.43 81.67 57.13 81.67C59.84 81.67 62.03 79.47 62.03 76.77ZM70.23 37.4C66.31 35.59 63.08 32.53 61.07 28.73L43.11 36.34C43.74 38.27 44.1 40.33 44.1 42.47C44.1 47.62 42.09 52.3 38.83 55.8L45.26 62.87C48.56 60.33 52.68 58.8 57.17 58.8C58.93 58.8 60.63 59.06 62.26 59.5L70.23 37.4Z" />
		</g>
	</g>
</svg>