<svg width="62" height="44" viewBox="0 0 62 44" fill="none" xmlns="http://www.w3.org/2000/svg">
<path fill-rule="evenodd" clip-rule="evenodd" d="M53 11H44.75V0H6.25C3.225 0 0.75 2.475 0.75 5.5V35.75H6.25C6.25 40.315 9.935 44 14.5 44C19.065 44 22.75 40.315 22.75 35.75H39.25C39.25 40.315 42.935 44 47.5 44C52.065 44 55.75 40.315 55.75 35.75H61.25V22L53 11ZM51.625 15.125L57.015 22H44.75V15.125H51.625ZM11.75 35.75C11.75 37.2625 12.9875 38.5 14.5 38.5C16.0125 38.5 17.25 37.2625 17.25 35.75C17.25 34.2375 16.0125 33 14.5 33C12.9875 33 11.75 34.2375 11.75 35.75ZM20.605 30.25C19.0925 28.5725 16.9475 27.5 14.5 27.5C12.0525 27.5 9.9075 28.5725 8.395 30.25H6.25V5.5H39.25V30.25H20.605ZM44.75 35.75C44.75 37.2625 45.9875 38.5 47.5 38.5C49.0125 38.5 50.25 37.2625 50.25 35.75C50.25 34.2375 49.0125 33 47.5 33C45.9875 33 44.75 34.2375 44.75 35.75Z" fill="#25D366"/>
</svg>
