<svg width="62" height="60" viewBox="0 0 62 60" fill="none" xmlns="http://www.w3.org/2000/svg">
<path fill-rule="evenodd" clip-rule="evenodd" d="M31 59.865C14.2934 59.865 0.75 46.6182 0.75 30.2774C0.75 13.9366 14.2934 0.689819 31 0.689819C47.7066 0.689819 61.25 13.9366 61.25 30.2774C61.25 46.6182 47.7066 59.865 31 59.865ZM51.3486 44.0616C54.1237 40.1497 55.75 35.3993 55.75 30.2774C55.75 16.9077 44.669 6.06938 31 6.06938C17.331 6.06938 6.25 16.9077 6.25 30.2774C6.25 35.3994 7.8763 40.1498 10.6514 44.0616C13.7464 40.063 21.0192 38.3468 31 38.3468C40.9809 38.3468 48.2536 40.063 51.3486 44.0616ZM47.4029 48.4059C46.598 45.5751 40.8158 43.7263 31 43.7263C21.1842 43.7263 15.402 45.5751 14.5971 48.4059C18.9641 52.1888 24.7078 54.4854 31 54.4854C37.2922 54.4854 43.0359 52.1888 47.4029 48.4059ZM31 14.1387C24.3425 14.1387 20 18.8613 20 24.8978C20 34.1167 24.8424 38.3468 31 38.3468C37.0997 38.3468 42 34.2572 42 25.4358C42 19.3073 37.639 14.1387 31 14.1387ZM25.5 24.8978C25.5 31.0016 27.7501 32.9672 31 32.9672C34.2387 32.9672 36.5 31.08 36.5 25.4358C36.5 22.0747 34.3431 19.5183 31 19.5183C27.5178 19.5183 25.5 21.7127 25.5 24.8978Z" fill="#FFCB3E"/>
</svg>
