<?xml version="1.0" encoding="UTF-8"?>
<svg width="40px" height="40px" viewBox="0 0 40 40" version="1.1" xmlns="http://www.w3.org/2000/svg" xmlns:xlink="http://www.w3.org/1999/xlink">
    <!-- Generator: Sketch 60.1 (88133) - https://sketch.com -->
    <title>Group 20</title>
    <desc>Created with Sketch.</desc>
    <defs>
        <linearGradient x1="6.71416922%" y1="93.4850191%" x2="93.6081727%" y2="6.61873642%" id="linearGradient-1">
            <stop stop-color="#FFDD55" offset="0%"></stop>
            <stop stop-color="#FF543E" offset="50%"></stop>
            <stop stop-color="#C837AB" offset="100%"></stop>
        </linearGradient>
    </defs>
    <g id="Landing-page" stroke="none" stroke-width="1" fill="none" fill-rule="evenodd">
        <g id="Landing-page_Desktop_Expanded" transform="translate(-684.000000, -2217.000000)" fill-rule="nonzero">
            <g id="Group-24" transform="translate(0.000000, 1438.000000)">
                <g id="Group-12" transform="translate(248.000000, 553.000000)">
                    <g id="Stacked-Group" transform="translate(212.000000, 226.000000)">
                        <g id="Group-20" transform="translate(224.000000, 0.000000)">
                            <circle id="Oval" fill="url(#linearGradient-1)" cx="20" cy="20" r="20"></circle>
                            <path d="M20.0003179,7.21233873 C14.757459,7.21233873 9.7788367,6.74632286 7.87719935,11.6228976 C7.09170906,13.6370096 7.20577842,16.2527581 7.20577842,19.9981983 C7.20577842,23.2848366 7.10037255,26.3738149 7.87719935,28.3720563 C9.77450495,33.2515166 14.7935569,32.7840579 19.9974301,32.7840579 C25.017926,32.7840579 30.1943648,33.306342 32.1191048,28.3720563 C32.906039,26.3377455 32.7905257,23.7609519 32.7905257,19.9981983 C32.7905257,15.0033161 33.0663137,11.7787172 30.6419787,9.35774307 C28.1873216,6.90502795 24.8677587,7.21233873 19.9945423,7.21233873 L20.0003179,7.21233873 Z M18.8014752,9.48401004 C29.7416798,9.46663221 31.134122,8.24728744 30.3656788,25.1863322 C30.0926793,31.1773408 25.5426866,30.5198794 19.9498067,30.5198794 C9.75204528,30.5198794 9.45882353,30.2273525 9.45882353,19.9990484 C9.45882353,9.65199578 10.2677111,9.48980265 18.8014752,9.48111373 L18.8014752,9.48401004 Z M26.7764706,11.3411765 C25.9449062,11.3411765 25.2705882,12.0154944 25.2705882,12.8470588 C25.2705882,13.6786232 25.9449062,14.3529412 26.7764706,14.3529412 C27.608035,14.3529412 28.2823529,13.6786232 28.2823529,12.8470588 C28.2823529,12.0154944 27.608035,11.3411765 26.7764706,11.3411765 L26.7764706,11.3411765 Z M19.8124888,13.2235294 C16.1733558,13.2235294 13.2235294,16.1741554 13.2235294,19.8124886 C13.2235294,23.4508218 16.1733558,26.4 19.8124888,26.4 C23.4516217,26.4 26.4,23.4508218 26.4,19.8124886 C26.4,16.1741554 23.4516217,13.2235294 19.8124888,13.2235294 Z M19.9997351,15.4823529 C25.5181235,15.4823529 25.5251893,24.1411765 19.9997351,24.1411765 C14.48276,24.1411765 14.474281,15.4823529 19.9997351,15.4823529 Z" id="Shape" fill="#FFFFFF"></path>
                        </g>
                    </g>
                </g>
            </g>
        </g>
    </g>
</svg>