<?xml version="1.0" encoding="UTF-8"?>
<svg width="40px" height="40px" viewBox="0 0 40 40" version="1.1" xmlns="http://www.w3.org/2000/svg" xmlns:xlink="http://www.w3.org/1999/xlink">
    <!-- Generator: Sketch 60.1 (88133) - https://sketch.com -->
    <title>Group 22</title>
    <desc>Created with Sketch.</desc>
    <g id="Landing-page" stroke="none" stroke-width="1" fill="none" fill-rule="evenodd">
        <g id="Landing-page_Desktop_Expanded" transform="translate(-572.000000, -2217.000000)" fill-rule="nonzero">
            <g id="Group-24" transform="translate(0.000000, 1438.000000)">
                <g id="Group-12" transform="translate(248.000000, 553.000000)">
                    <g id="Stacked-Group" transform="translate(212.000000, 226.000000)">
                        <g id="Group-22" transform="translate(112.000000, 0.000000)">
                            <circle id="Oval" fill="#007AB9" cx="20" cy="20" r="20"></circle>
                            <path d="M30.4,22.1560315 L30.4,30.0004 L25.9447474,30.0004 L25.9447474,22.681748 C25.9447474,20.8441144 25.3014952,19.5891783 23.6883807,19.5891783 C22.4573634,19.5891783 21.7260627,20.4340555 21.4031076,21.2521383 C21.2858204,21.5445045 21.2555849,21.9504933 21.2555849,22.3605521 L21.2555849,30.0000608 L16.8,30.0000608 C16.8,30.0000608 16.8598065,17.6046833 16.8,16.3215958 L21.2559171,16.3215958 L21.2559171,18.2599634 C21.2469462,18.2752262 21.2343203,18.2901497 21.2263461,18.3047341 L21.2559171,18.3047341 L21.2559171,18.2599634 C21.8480016,17.329954 22.9039187,16.0004 25.2712597,16.0004 C28.2024431,16.0004 30.4,17.955387 30.4,22.1560315 L30.4,22.1560315 Z M12.2158579,10.0004 C10.6345532,10.0004 9.6,11.0374094 9.6,12.3998834 C9.6,13.7334272 10.6045611,14.8004 12.1551843,14.8004 L12.1851763,14.8004 C13.7975073,14.8004 14.8,13.7334272 14.8,12.3998834 C14.7693185,11.0374094 13.7975073,10.0004 12.2158579,10.0004 L12.2158579,10.0004 Z M10,30.0004 L14.4,30.0004 L14.4,16.4004 L10,16.4004 L10,30.0004 Z" id="Shape" fill="#F1F2F2"></path>
                        </g>
                    </g>
                </g>
            </g>
        </g>
    </g>
</svg>