<?xml version="1.0" encoding="UTF-8"?>
<svg width="40px" height="40px" viewBox="0 0 40 40" version="1.1" xmlns="http://www.w3.org/2000/svg" xmlns:xlink="http://www.w3.org/1999/xlink">
    <!-- Generator: Sketch 60.1 (88133) - https://sketch.com -->
    <title>Group 21</title>
    <desc>Created with Sketch.</desc>
    <g id="Landing-page" stroke="none" stroke-width="1" fill="none" fill-rule="evenodd">
        <g id="Landing-page_Desktop_Expanded" transform="translate(-628.000000, -2217.000000)" fill-rule="nonzero">
            <g id="Group-24" transform="translate(0.000000, 1438.000000)">
                <g id="Group-12" transform="translate(248.000000, 553.000000)">
                    <g id="Stacked-Group" transform="translate(212.000000, 226.000000)">
                        <g id="Group-21" transform="translate(168.000000, 0.000000)">
                            <circle id="Oval" fill="#FFE6E2" cx="20" cy="20" r="20"></circle>
                            <path d="M28.371825,13.8972 L30,12.340425 L30,12 L24.360675,12 L20.341875,22.002375 L15.771,12 L9.85755,12 L9.85755,12.3417 L11.75985,14.630325 C11.944725,14.798625 12.0429,15.04725 12.0174,15.295875 L12.0174,24.291 C12.07605,24.61485 11.970225,24.947625 11.743275,25.1835 L9.6,27.7794 L9.6,28.116 L15.672825,28.116 L15.672825,27.7743 L13.530825,25.182225 C13.298775,24.94635 13.189125,24.618675 13.2363,24.289725 L13.2363,16.509675 L18.567075,28.119825 L19.186725,28.119825 L23.77035,16.509675 L23.77035,25.758525 C23.77035,26.003325 23.77035,26.05305 23.6097,26.212425 L21.95985,27.80745 L21.95985,28.14915 L29.960475,28.14915 L29.960475,27.80745 L28.37055,26.250675 C28.231575,26.146125 28.1589,25.9689 28.188225,25.796775 L28.188225,14.3511 C28.16145,14.178975 28.23285,14.00175 28.371825,13.8972 L28.371825,13.8972 Z" id="Path" fill="#FC573B"></path>
                        </g>
                    </g>
                </g>
            </g>
        </g>
    </g>
</svg>