<?xml version="1.0" encoding="UTF-8"?>
<svg width="40px" height="40px" viewBox="0 0 40 40" version="1.1" xmlns="http://www.w3.org/2000/svg" xmlns:xlink="http://www.w3.org/1999/xlink">
    <!-- Generator: Sketch 60.1 (88133) - https://sketch.com -->
    <title>Group 23</title>
    <desc>Created with Sketch.</desc>
    <g id="Landing-page" stroke="none" stroke-width="1" fill="none" fill-rule="evenodd">
        <g id="Landing-page_Desktop_Expanded" transform="translate(-516.000000, -2217.000000)" fill-rule="nonzero">
            <g id="Group-24" transform="translate(0.000000, 1438.000000)">
                <g id="Group-12" transform="translate(248.000000, 553.000000)">
                    <g id="Stacked-Group" transform="translate(212.000000, 226.000000)">
                        <g id="Group-23" transform="translate(56.000000, 0.000000)">
                            <circle id="Oval" fill="#55ACEE" cx="20" cy="20" r="20"></circle>
                            <path d="M33.8712,13.7906927 C32.9590056,14.1920859 31.9777516,14.4635723 30.9486871,14.5848187 C31.9993802,13.9601364 32.8057084,12.9717151 33.1862953,11.7920106 C32.2031441,12.3707549 31.1137472,12.7905986 29.9552907,13.0169 C29.0271595,12.0360095 27.7047812,11.423 26.2404891,11.423 C23.4310519,11.423 21.1524632,13.6841315 21.1524632,16.4720445 C21.1524632,16.8677896 21.1976176,17.2529915 21.2848907,17.6227552 C17.0563158,17.4122686 13.3069844,15.4022902 10.7973116,12.3466562 C10.3594279,13.0922083 10.108233,13.9601364 10.108233,14.8852988 C10.108233,16.6365931 11.0071466,18.1826724 12.3716437,19.0878781 C11.5379952,19.0618967 10.7529161,18.8348422 10.0672525,18.455665 C10.0668731,18.4771278 10.0668731,18.4985907 10.0668731,18.519677 C10.0668731,20.9660669 11.8214433,23.0065451 14.1486014,23.4700677 C13.7221012,23.5860425 13.2716957,23.6474187 12.808389,23.6474187 C12.4797866,23.6474187 12.1614292,23.6161658 11.8510403,23.5574253 C12.4983795,25.5628852 14.3770294,27.0227364 16.6040131,27.0637794 C14.8623442,28.4181991 12.6687519,29.2251275 10.2842971,29.2251275 C9.87449263,29.2251275 9.46848266,29.2014053 9.0712,29.1543377 C11.3217095,30.5874545 13.996822,31.423 16.8700066,31.423 C26.2287262,31.423 31.3467286,23.7295048 31.3467286,17.0568134 C31.3467286,16.8380428 31.3417958,16.6200253 31.3319301,16.4038905 C32.3268443,15.6922271 33.1893309,14.8032127 33.8712,13.7906927 L33.8712,13.7906927 Z" id="Path" fill="#F1F2F2"></path>
                        </g>
                    </g>
                </g>
            </g>
        </g>
    </g>
</svg>